<?xml version="1.0" encoding="utf-8"?>
<!-- Generator: Adobe Illustrator 25.4.1, SVG Export Plug-In . SVG Version: 6.00 Build 0)  -->
<svg version="1.1" id="Layer_1" xmlns="http://www.w3.org/2000/svg" xmlns:xlink="http://www.w3.org/1999/xlink" x="0px" y="0px"
	 viewBox="0 0 180 64.8" style="enable-background:new 0 0 180 64.8;" xml:space="preserve">
<style type="text/css">
	.st0{fill:#374D9F;}
	.st1{fill:url(#SVGID_1_);}
	.st2{fill:url(#SVGID_00000108306967917197475090000016528773202974433703_);}
	.st3{fill:#574A9E;}
	.st4{fill:url(#SVGID_00000173869372830134105190000007880863345167237769_);}
	.st5{fill:url(#SVGID_00000163043754590228260930000012842156758801691576_);}
	.st6{fill:url(#SVGID_00000133490358010584871250000012132101688007713192_);}
	.st7{fill:url(#SVGID_00000161617393481572816410000002441529292554711682_);}
	.st8{fill:#19B7BC;}
	.st9{fill:#898A8D;}
	.st10{fill:url(#SVGID_00000097490083071243443520000001637456946789546123_);}
</style>
<g>
	<g>
		<path class="st3" d="M168.1,56.2c0.2-0.1,0.4-0.2,0.6-0.4c0.2-0.2,0.3-0.4,0.4-0.6c0.1-0.2,0.1-0.4,0.1-0.6c0-0.2,0-0.4-0.1-0.5
			c-0.1-0.1-0.1-0.3-0.2-0.4c-0.1-0.1-0.2-0.2-0.4-0.3c-0.2-0.1-0.3-0.1-0.5-0.2l-0.3-0.1c-0.2,0-0.3-0.1-0.4-0.2
			c-0.1-0.1-0.1-0.2-0.1-0.3c0-0.2,0.1-0.3,0.2-0.4c0.1-0.1,0.3-0.2,0.6-0.2c0.2,0,0.4,0,0.6,0.1c0.1,0.1,0.3,0.2,0.4,0.3l0.7-0.7
			c-0.2-0.2-0.4-0.4-0.7-0.5c-0.3-0.1-0.6-0.2-1-0.2c-0.3,0-0.5,0-0.8,0.1c-0.2,0.1-0.4,0.2-0.6,0.3c-0.2,0.1-0.3,0.3-0.4,0.5
			c-0.1,0.2-0.1,0.4-0.1,0.6c0,0.2,0,0.4,0.1,0.5c0.1,0.1,0.1,0.3,0.2,0.4c0.1,0.1,0.2,0.2,0.4,0.3c0.1,0.1,0.3,0.1,0.5,0.2l0.3,0.1
			c0.2,0,0.3,0.1,0.4,0.2c0.1,0.1,0.2,0.2,0.2,0.4c0,0.2-0.1,0.4-0.2,0.5c-0.2,0.1-0.4,0.2-0.7,0.2c-0.2,0-0.5,0-0.6-0.1
			c-0.2-0.1-0.3-0.2-0.4-0.5l-0.8,0.6c0.2,0.3,0.4,0.6,0.7,0.7c0.3,0.1,0.7,0.2,1.1,0.2C167.5,56.4,167.8,56.3,168.1,56.2
			 M163.5,56.3h1.1l1-5.1h-0.9l-0.7,3.4h0l-0.3-1l-0.8-2.4h-1.1l-1,5.1h0.9l0.7-3.4h0l0.3,1L163.5,56.3z M159,54.2h-1.1l0.9-2h0.1
			L159,54.2z M160.2,56.3l-0.5-5.1h-1.3l-2.5,5.1h1.1l0.6-1.2h1.5l0.1,1.2H160.2z"/>
		<path class="st3" d="M177,48c0.2-0.1,0.4-0.2,0.6-0.4c0.2-0.2,0.3-0.4,0.4-0.6c0.1-0.2,0.1-0.4,0.1-0.6c0-0.2,0-0.4-0.1-0.5
			c-0.1-0.1-0.1-0.3-0.2-0.4c-0.1-0.1-0.2-0.2-0.4-0.3c-0.2-0.1-0.3-0.1-0.5-0.2l-0.3-0.1c-0.2,0-0.3-0.1-0.4-0.2
			c-0.1-0.1-0.1-0.2-0.1-0.3c0-0.2,0.1-0.3,0.2-0.4c0.1-0.1,0.3-0.2,0.6-0.2c0.2,0,0.4,0,0.6,0.1c0.1,0.1,0.3,0.2,0.4,0.3l0.7-0.7
			c-0.2-0.2-0.4-0.4-0.7-0.5c-0.3-0.1-0.6-0.2-1-0.2c-0.3,0-0.5,0-0.8,0.1c-0.2,0.1-0.4,0.2-0.6,0.3c-0.2,0.1-0.3,0.3-0.4,0.5
			c-0.1,0.2-0.1,0.4-0.1,0.6c0,0.2,0,0.4,0.1,0.5c0.1,0.2,0.1,0.3,0.2,0.4c0.1,0.1,0.2,0.2,0.4,0.3c0.1,0.1,0.3,0.1,0.5,0.2l0.3,0.1
			c0.2,0,0.3,0.1,0.4,0.2c0.1,0.1,0.2,0.2,0.2,0.4c0,0.2-0.1,0.4-0.2,0.5c-0.2,0.1-0.4,0.2-0.7,0.2c-0.2,0-0.5,0-0.6-0.1
			c-0.2-0.1-0.3-0.2-0.4-0.5l-0.8,0.6c0.2,0.3,0.4,0.6,0.7,0.7c0.3,0.1,0.7,0.2,1.1,0.2C176.5,48.2,176.7,48.1,177,48 M171.6,45.3
			l0.3-1.4h1c0.2,0,0.3,0,0.3,0.1c0.1,0.1,0.1,0.2,0.1,0.3c0,0,0,0.1,0,0.2c0,0.1,0,0.2-0.1,0.3c0,0.2-0.1,0.3-0.2,0.4
			c-0.1,0.1-0.2,0.1-0.4,0.1H171.6z M171.4,46.2h0.8l0.5,1.9h1.1l-0.6-2c0.2-0.1,0.4-0.2,0.5-0.3c0.1-0.1,0.3-0.3,0.4-0.4
			c0.1-0.2,0.2-0.3,0.2-0.5c0.1-0.2,0.1-0.4,0.1-0.6c0-0.4-0.1-0.7-0.4-1c-0.3-0.2-0.6-0.3-1.1-0.3H171l-1,5.1h1L171.4,46.2z
			 M168.2,46h-1.1l0.9-2h0.1L168.2,46z M169.4,48.1l-0.5-5.1h-1.3l-2.5,5.1h1.1l0.6-1.2h1.5l0.1,1.2H169.4z M164.7,48.1l0.2-0.9
			h-2.2l0.2-1.2h1.8l0.2-0.9h-1.8l0.2-1.1h2.1l0.2-0.9h-3.1l-1,5.1H164.7z M159.3,48.1l0.4-1.9l2.2-3.2h-1.1l-1.4,2.1h0l-0.6-2.1h-1
			l1,3.1l-0.4,2H159.3z"/>
		<path class="st3" d="M123,52.4c0.1,0,0.2,0.1,0.2,0.1c0.1,0,0.1,0.1,0.2,0.2c0,0.1,0.1,0.2,0.1,0.3c0,0.1,0,0.3-0.1,0.4
			c-0.1,0.1-0.2,0.2-0.3,0.3c-0.2,0.1-0.4,0.1-0.7,0.2c-0.3,0-0.6,0.1-1.1,0.1l0-0.2c0-0.2,0.1-0.4,0.2-0.5s0.2-0.3,0.3-0.4
			c0.1-0.1,0.2-0.2,0.4-0.3c0.1-0.1,0.3-0.1,0.5-0.1C122.8,52.3,122.9,52.3,123,52.4 M123.1,56c0.3-0.1,0.6-0.4,0.8-0.7l-0.4-0.4
			c-0.2,0.2-0.4,0.4-0.6,0.5c-0.2,0.1-0.5,0.2-0.7,0.2c-0.3,0-0.6-0.1-0.7-0.3c-0.2-0.2-0.3-0.4-0.3-0.7c0,0,0-0.1,0-0.2
			c0-0.1,0-0.1,0-0.2c1,0,1.7-0.1,2.2-0.4c0.5-0.2,0.7-0.6,0.7-1c0-0.2,0-0.4-0.1-0.5s-0.2-0.3-0.3-0.4c-0.1-0.1-0.3-0.2-0.4-0.2
			s-0.3-0.1-0.5-0.1c-0.3,0-0.6,0.1-0.9,0.2c-0.3,0.1-0.5,0.3-0.7,0.6c-0.2,0.2-0.3,0.5-0.4,0.9c-0.1,0.3-0.2,0.7-0.2,1
			c0,0.6,0.1,1,0.4,1.3c0.3,0.3,0.7,0.5,1.2,0.5C122.5,56.2,122.8,56.2,123.1,56 M119.4,56.1l0.1-0.6h-0.8l0.6-3.1h0.9l0.1-0.6h-0.9
			l0.2-1.2h-0.6l-0.2,0.8c0,0.1-0.1,0.3-0.1,0.3s-0.2,0.1-0.3,0.1h-0.3l-0.1,0.6h0.6l-0.6,3c0,0.1,0,0.1,0,0.2c0,0.2,0,0.3,0.1,0.4
			c0.1,0.1,0.2,0.1,0.4,0.1H119.4z M115.4,56.1l0.5-2.5c0-0.1,0.1-0.3,0.1-0.4c0.1-0.1,0.2-0.2,0.3-0.3c0.1-0.1,0.2-0.2,0.4-0.2
			c0.2-0.1,0.3-0.1,0.5-0.1h0.3l0.1-0.6h-0.3c-0.2,0-0.3,0-0.5,0.1c-0.1,0-0.2,0.1-0.3,0.2c-0.1,0.1-0.2,0.2-0.3,0.3
			c-0.1,0.1-0.1,0.2-0.2,0.3h0l0.2-0.8h-0.6l-0.8,4.2H115.4z M113,52.4c0.1,0,0.2,0.1,0.2,0.1c0.1,0,0.1,0.1,0.2,0.2
			c0,0.1,0.1,0.2,0.1,0.3c0,0.1,0,0.3-0.1,0.4c-0.1,0.1-0.2,0.2-0.3,0.3c-0.2,0.1-0.4,0.1-0.7,0.2c-0.3,0-0.6,0.1-1.1,0.1l0-0.2
			c0-0.2,0.1-0.4,0.2-0.5c0.1-0.2,0.2-0.3,0.3-0.4c0.1-0.1,0.2-0.2,0.4-0.3c0.1-0.1,0.3-0.1,0.5-0.1C112.8,52.3,112.9,52.3,113,52.4
			 M113.1,56c0.3-0.1,0.6-0.4,0.8-0.7l-0.4-0.4c-0.2,0.2-0.4,0.4-0.6,0.5c-0.2,0.1-0.5,0.2-0.7,0.2c-0.3,0-0.6-0.1-0.7-0.3
			c-0.2-0.2-0.3-0.4-0.3-0.7c0,0,0-0.1,0-0.2c0-0.1,0-0.1,0-0.2c1,0,1.7-0.1,2.2-0.4c0.5-0.2,0.7-0.6,0.7-1c0-0.2,0-0.4-0.1-0.5
			s-0.2-0.3-0.3-0.4c-0.1-0.1-0.3-0.2-0.4-0.2s-0.3-0.1-0.5-0.1c-0.3,0-0.6,0.1-0.9,0.2s-0.5,0.3-0.7,0.6c-0.2,0.2-0.3,0.5-0.4,0.9
			c-0.1,0.3-0.2,0.7-0.2,1c0,0.6,0.1,1,0.4,1.3c0.3,0.3,0.7,0.5,1.2,0.5C112.5,56.2,112.8,56.2,113.1,56 M108.2,56.1l2.3-4.2h-0.7
			l-1.1,2.1l-0.8,1.5h0l-0.2-1.5l-0.3-2.1h-0.6l0.6,4.2H108.2z M102.7,51.9l-0.5,2.6c0,0.1,0,0.2,0,0.3c0,0.1,0,0.2,0,0.3
			c0,0.4,0.1,0.7,0.3,0.9c0.2,0.2,0.4,0.3,0.8,0.3c0.3,0,0.5-0.1,0.7-0.2c0.2-0.2,0.4-0.4,0.5-0.7h0l0,0.1c0,0.1,0,0.2,0,0.2
			c0,0.2,0,0.3,0.1,0.4c0.1,0.1,0.2,0.1,0.4,0.1h0.6l0.1-0.6h-0.6l0.7-3.7h-0.6l-0.5,2.4c0,0.2-0.1,0.3-0.2,0.5
			c-0.1,0.2-0.2,0.4-0.4,0.5c-0.2,0.2-0.5,0.3-0.8,0.3c-0.2,0-0.4-0.1-0.5-0.2c-0.1-0.1-0.1-0.3-0.1-0.5c0,0,0-0.1,0-0.2
			c0-0.1,0-0.2,0-0.2l0.5-2.6H102.7z M98.4,55.4c-0.2-0.2-0.2-0.4-0.2-0.7c0-0.1,0-0.2,0-0.4l0.1-0.6c0.1-0.4,0.3-0.8,0.5-1
			c0.2-0.2,0.5-0.3,0.8-0.3c0.3,0,0.6,0.1,0.7,0.3c0.2,0.2,0.2,0.4,0.2,0.7c0,0.1,0,0.2,0,0.4l-0.1,0.6c-0.1,0.4-0.3,0.8-0.5,1
			c-0.2,0.2-0.5,0.3-0.8,0.3C98.8,55.7,98.5,55.6,98.4,55.4 M99.9,56c0.3-0.1,0.5-0.3,0.7-0.6c0.2-0.2,0.3-0.5,0.4-0.9
			c0.1-0.3,0.2-0.7,0.2-1c0-0.3,0-0.5-0.1-0.8c-0.1-0.2-0.2-0.4-0.3-0.5c-0.1-0.1-0.3-0.3-0.5-0.3c-0.2-0.1-0.4-0.1-0.6-0.1
			c-0.3,0-0.6,0.1-0.9,0.2c-0.3,0.1-0.5,0.3-0.7,0.6c-0.2,0.2-0.3,0.5-0.4,0.9c-0.1,0.3-0.2,0.7-0.2,1c0,0.3,0,0.5,0.1,0.8
			c0.1,0.2,0.2,0.4,0.3,0.5c0.1,0.1,0.3,0.3,0.5,0.3c0.2,0.1,0.4,0.1,0.6,0.1C99.3,56.2,99.6,56.1,99.9,56 M96,55.9
			c0.3-0.2,0.5-0.5,0.7-0.8l-0.5-0.2c-0.2,0.3-0.3,0.5-0.5,0.7c-0.2,0.1-0.4,0.2-0.6,0.2c-0.3,0-0.6-0.1-0.7-0.3
			c-0.2-0.2-0.2-0.4-0.2-0.8c0,0,0-0.1,0-0.2c0-0.1,0-0.1,0-0.2l0.1-0.7c0.1-0.4,0.2-0.7,0.4-0.9c0.2-0.2,0.5-0.3,0.8-0.3
			c0.5,0,0.7,0.2,0.9,0.7l0.5-0.2c-0.1-0.3-0.2-0.5-0.5-0.7c-0.2-0.2-0.5-0.3-0.9-0.3c-0.3,0-0.6,0.1-0.9,0.2
			c-0.3,0.1-0.5,0.3-0.6,0.6c-0.2,0.2-0.3,0.5-0.4,0.9c-0.1,0.3-0.1,0.7-0.1,1c0,0.3,0,0.5,0.1,0.7c0.1,0.2,0.2,0.4,0.3,0.5
			c0.1,0.2,0.3,0.3,0.5,0.4c0.2,0.1,0.4,0.1,0.6,0.1C95.4,56.2,95.7,56.1,96,55.9 M92.7,50l-0.6-0.3l-0.8,1.4l0.4,0.2L92.7,50z
			 M91.7,52.4c0.1,0,0.2,0.1,0.2,0.1c0.1,0,0.1,0.1,0.2,0.2c0,0.1,0.1,0.2,0.1,0.3c0,0.1,0,0.3-0.1,0.4c-0.1,0.1-0.2,0.2-0.3,0.3
			c-0.2,0.1-0.4,0.1-0.7,0.2c-0.3,0-0.6,0.1-1.1,0.1l0-0.2c0-0.2,0.1-0.4,0.2-0.5s0.2-0.3,0.3-0.4c0.1-0.1,0.2-0.2,0.4-0.3
			c0.1-0.1,0.3-0.1,0.5-0.1C91.5,52.3,91.6,52.3,91.7,52.4 M91.7,56c0.3-0.1,0.6-0.4,0.8-0.7L92.2,55c-0.2,0.2-0.4,0.4-0.6,0.5
			c-0.2,0.1-0.5,0.2-0.7,0.2c-0.3,0-0.6-0.1-0.7-0.3c-0.2-0.2-0.3-0.4-0.3-0.7c0,0,0-0.1,0-0.2c0-0.1,0-0.1,0-0.2
			c1,0,1.7-0.1,2.2-0.4c0.5-0.2,0.7-0.6,0.7-1c0-0.2,0-0.4-0.1-0.5c-0.1-0.1-0.2-0.3-0.3-0.4c-0.1-0.1-0.3-0.2-0.4-0.2
			s-0.3-0.1-0.5-0.1c-0.3,0-0.6,0.1-0.9,0.2s-0.5,0.3-0.7,0.6c-0.2,0.2-0.3,0.5-0.4,0.9c-0.1,0.3-0.2,0.7-0.2,1c0,0.6,0.1,1,0.4,1.3
			c0.3,0.3,0.7,0.5,1.2,0.5C91.1,56.2,91.4,56.2,91.7,56 M85.3,55.4c-0.1-0.2-0.2-0.4-0.2-0.7c0-0.1,0-0.3,0-0.4l0.1-0.6
			c0.1-0.4,0.2-0.7,0.5-1c0.2-0.2,0.5-0.3,0.8-0.3c0.2,0,0.3,0,0.5,0.1c0.1,0.1,0.2,0.1,0.3,0.2s0.1,0.2,0.1,0.3c0,0.1,0,0.2,0,0.4
			l-0.2,0.9c0,0.2-0.1,0.4-0.2,0.6c-0.1,0.2-0.2,0.3-0.3,0.5c-0.1,0.1-0.3,0.2-0.4,0.3c-0.1,0.1-0.3,0.1-0.5,0.1
			C85.6,55.6,85.4,55.6,85.3,55.4 M88.1,56.1l0.1-0.6h-0.6l1.1-5.5h-0.6l-0.5,2.5h0c0-0.1-0.1-0.2-0.2-0.3c-0.1-0.1-0.2-0.2-0.3-0.2
			c-0.1-0.1-0.2-0.1-0.3-0.1c-0.1,0-0.2,0-0.4,0c-0.3,0-0.6,0.1-0.9,0.3c-0.3,0.2-0.5,0.4-0.6,0.7s-0.3,0.6-0.4,0.9
			c-0.1,0.3-0.1,0.7-0.1,1c0,0.5,0.1,0.9,0.3,1.2c0.2,0.3,0.5,0.4,0.9,0.4c0.3,0,0.6-0.1,0.8-0.2c0.2-0.2,0.4-0.4,0.6-0.8h0l0,0.2
			c0,0.1,0,0.2,0,0.2c0,0.2,0,0.3,0.1,0.4c0.1,0.1,0.2,0.1,0.4,0.1H88.1z M78.4,55.4c-0.1-0.2-0.2-0.4-0.2-0.7c0-0.1,0-0.3,0-0.4
			l0.1-0.6c0.1-0.4,0.2-0.7,0.5-1c0.2-0.2,0.5-0.3,0.8-0.3c0.2,0,0.3,0,0.5,0.1c0.1,0.1,0.2,0.1,0.3,0.2s0.1,0.2,0.1,0.3
			c0,0.1,0,0.2,0,0.4l-0.2,0.9c0,0.2-0.1,0.4-0.2,0.6c-0.1,0.2-0.2,0.3-0.3,0.5c-0.1,0.1-0.3,0.2-0.4,0.3c-0.1,0.1-0.3,0.1-0.5,0.1
			C78.8,55.6,78.6,55.6,78.4,55.4 M81.3,56.1l0.1-0.6h-0.6l0.7-3.7h-0.6l-0.1,0.7h0c0-0.1-0.1-0.2-0.2-0.3c-0.1-0.1-0.2-0.2-0.3-0.2
			c-0.1-0.1-0.2-0.1-0.3-0.1c-0.1,0-0.2,0-0.4,0c-0.3,0-0.6,0.1-0.9,0.3c-0.3,0.2-0.5,0.4-0.6,0.7c-0.2,0.3-0.3,0.6-0.4,0.9
			c-0.1,0.3-0.1,0.7-0.1,1c0,0.5,0.1,0.9,0.4,1.2c0.2,0.3,0.5,0.4,0.9,0.4c0.3,0,0.6-0.1,0.8-0.2c0.2-0.2,0.4-0.4,0.6-0.8h0l0,0.2
			c0,0.1,0,0.2,0,0.2c0,0.2,0,0.3,0.1,0.4c0.1,0.1,0.2,0.1,0.4,0.1H81.3z M76.5,56.1l0.1-0.6H76l1.1-5.5h-0.6l-1.1,5.4
			c0,0.1,0,0.1,0,0.2c0,0.2,0,0.3,0.1,0.4c0.1,0.1,0.2,0.1,0.4,0.1H76.5z M70.8,56.1l0.5-2.5c0-0.1,0.1-0.3,0.1-0.4
			c0.1-0.1,0.2-0.2,0.3-0.3c0.1-0.1,0.2-0.2,0.4-0.2c0.1-0.1,0.3-0.1,0.5-0.1h0.3l0.1-0.6h-0.3c-0.2,0-0.3,0-0.5,0.1
			c-0.1,0-0.2,0.1-0.3,0.2c-0.1,0.1-0.2,0.2-0.3,0.3c-0.1,0.1-0.1,0.2-0.2,0.3h0l0.2-0.8H71l-0.8,4.2H70.8z M68.5,52.4
			c0.1,0,0.2,0.1,0.2,0.1c0.1,0,0.1,0.1,0.2,0.2c0,0.1,0.1,0.2,0.1,0.3c0,0.1,0,0.3-0.1,0.4c-0.1,0.1-0.2,0.2-0.3,0.3
			c-0.2,0.1-0.4,0.1-0.7,0.2c-0.3,0-0.6,0.1-1.1,0.1l0-0.2c0-0.2,0.1-0.4,0.2-0.5s0.2-0.3,0.3-0.4c0.1-0.1,0.2-0.2,0.4-0.3
			c0.1-0.1,0.3-0.1,0.5-0.1C68.3,52.3,68.4,52.3,68.5,52.4 M68.5,56c0.3-0.1,0.6-0.4,0.8-0.7L69,55c-0.2,0.2-0.4,0.4-0.6,0.5
			c-0.2,0.1-0.5,0.2-0.7,0.2c-0.3,0-0.6-0.1-0.7-0.3c-0.2-0.2-0.3-0.4-0.3-0.7c0,0,0-0.1,0-0.2c0-0.1,0-0.1,0-0.2
			c1,0,1.7-0.1,2.2-0.4c0.5-0.2,0.7-0.6,0.7-1c0-0.2,0-0.4-0.1-0.5c-0.1-0.1-0.2-0.3-0.3-0.4c-0.1-0.1-0.3-0.2-0.4-0.2
			c-0.2,0-0.3-0.1-0.5-0.1c-0.3,0-0.6,0.1-0.9,0.2s-0.5,0.3-0.7,0.6c-0.2,0.2-0.3,0.5-0.4,0.9c-0.1,0.3-0.2,0.7-0.2,1
			c0,0.6,0.1,1,0.4,1.3c0.3,0.3,0.7,0.5,1.2,0.5C68,56.2,68.3,56.2,68.5,56 M63.6,56.1l0.5-2.5c0-0.1,0.1-0.3,0.1-0.4
			c0.1-0.1,0.2-0.2,0.3-0.3c0.1-0.1,0.2-0.2,0.4-0.2c0.1-0.1,0.3-0.1,0.5-0.1h0.3l0.1-0.6h-0.3c-0.2,0-0.3,0-0.5,0.1
			c-0.1,0-0.2,0.1-0.3,0.2c-0.1,0.1-0.2,0.2-0.3,0.3c-0.1,0.1-0.1,0.2-0.2,0.3h0l0.2-0.8h-0.6l-0.8,4.2H63.6z M62.3,50l-0.6-0.3
			l-0.8,1.4l0.4,0.2L62.3,50z M61.2,52.4c0.1,0,0.2,0.1,0.2,0.1c0.1,0,0.1,0.1,0.2,0.2c0,0.1,0.1,0.2,0.1,0.3c0,0.1,0,0.3-0.1,0.4
			c-0.1,0.1-0.2,0.2-0.3,0.3c-0.2,0.1-0.4,0.1-0.7,0.2c-0.3,0-0.6,0.1-1.1,0.1l0-0.2c0-0.2,0.1-0.4,0.2-0.5c0.1-0.2,0.2-0.3,0.3-0.4
			c0.1-0.1,0.2-0.2,0.4-0.3c0.2-0.1,0.3-0.1,0.5-0.1C61,52.3,61.1,52.3,61.2,52.4 M61.3,56c0.3-0.1,0.6-0.4,0.8-0.7L61.7,55
			c-0.2,0.2-0.4,0.4-0.6,0.5c-0.2,0.1-0.5,0.2-0.7,0.2c-0.3,0-0.6-0.1-0.7-0.3c-0.2-0.2-0.3-0.4-0.3-0.7c0,0,0-0.1,0-0.2
			c0-0.1,0-0.1,0-0.2c1,0,1.7-0.1,2.2-0.4c0.5-0.2,0.7-0.6,0.7-1c0-0.2,0-0.4-0.1-0.5c-0.1-0.1-0.2-0.3-0.3-0.4
			c-0.1-0.1-0.3-0.2-0.4-0.2c-0.2,0-0.3-0.1-0.5-0.1c-0.3,0-0.6,0.1-0.9,0.2c-0.3,0.1-0.5,0.3-0.7,0.6c-0.2,0.2-0.3,0.5-0.4,0.9
			c-0.1,0.3-0.2,0.7-0.2,1c0,0.6,0.1,1,0.4,1.3c0.3,0.3,0.7,0.5,1.2,0.5C60.7,56.2,61,56.2,61.3,56 M57.7,56.1l0.1-0.6h-0.6l1.1-5.5
			h-0.6l-1.1,5.4c0,0.1,0,0.1,0,0.2c0,0.2,0,0.3,0.1,0.4c0.1,0.1,0.2,0.1,0.4,0.1H57.7z M55.8,50l-0.6-0.3l-0.8,1.4l0.4,0.2L55.8,50
			z M54.8,52.4c0.1,0,0.2,0.1,0.2,0.1c0.1,0,0.1,0.1,0.2,0.2c0,0.1,0.1,0.2,0.1,0.3c0,0.1,0,0.3-0.1,0.4c-0.1,0.1-0.2,0.2-0.3,0.3
			c-0.2,0.1-0.4,0.1-0.7,0.2c-0.3,0-0.6,0.1-1.1,0.1l0-0.2c0-0.2,0.1-0.4,0.2-0.5c0.1-0.2,0.2-0.3,0.3-0.4c0.1-0.1,0.2-0.2,0.4-0.3
			c0.2-0.1,0.3-0.1,0.5-0.1C54.6,52.3,54.7,52.3,54.8,52.4 M54.8,56c0.3-0.1,0.6-0.4,0.8-0.7L55.3,55c-0.2,0.2-0.4,0.4-0.6,0.5
			c-0.2,0.1-0.5,0.2-0.7,0.2c-0.3,0-0.6-0.1-0.7-0.3C53,55.2,53,55,53,54.7c0,0,0-0.1,0-0.2c0-0.1,0-0.1,0-0.2c1,0,1.7-0.1,2.2-0.4
			c0.5-0.2,0.7-0.6,0.7-1c0-0.2,0-0.4-0.1-0.5c-0.1-0.1-0.2-0.3-0.3-0.4c-0.1-0.1-0.3-0.2-0.4-0.2c-0.2,0-0.3-0.1-0.5-0.1
			c-0.3,0-0.6,0.1-0.9,0.2c-0.3,0.1-0.5,0.3-0.7,0.6c-0.2,0.2-0.3,0.5-0.4,0.9c-0.1,0.3-0.2,0.7-0.2,1c0,0.6,0.1,1,0.4,1.3
			c0.3,0.3,0.7,0.5,1.2,0.5C54.2,56.2,54.5,56.2,54.8,56 M50.8,55.9c0.3-0.2,0.5-0.5,0.7-0.8L51,54.8c-0.2,0.3-0.3,0.5-0.5,0.7
			c-0.2,0.1-0.4,0.2-0.6,0.2c-0.3,0-0.6-0.1-0.7-0.3C49,55.2,49,54.9,49,54.6c0,0,0-0.1,0-0.2c0-0.1,0-0.1,0-0.2l0.1-0.7
			c0.1-0.4,0.2-0.7,0.4-0.9c0.2-0.2,0.5-0.3,0.8-0.3c0.5,0,0.7,0.2,0.9,0.7l0.5-0.2c-0.1-0.3-0.2-0.5-0.5-0.7
			c-0.2-0.2-0.5-0.3-0.9-0.3c-0.3,0-0.6,0.1-0.9,0.2c-0.3,0.1-0.5,0.3-0.6,0.6c-0.2,0.2-0.3,0.5-0.4,0.9c-0.1,0.3-0.1,0.7-0.1,1
			c0,0.3,0,0.5,0.1,0.7s0.2,0.4,0.3,0.5c0.1,0.2,0.3,0.3,0.5,0.4s0.4,0.1,0.6,0.1C50.2,56.2,50.5,56.1,50.8,55.9 M46.8,55.9
			c0.3-0.2,0.5-0.5,0.7-0.8L47,54.8c-0.2,0.3-0.3,0.5-0.5,0.7c-0.2,0.1-0.4,0.2-0.6,0.2c-0.3,0-0.6-0.1-0.7-0.3
			C45,55.2,45,54.9,45,54.6c0,0,0-0.1,0-0.2c0-0.1,0-0.1,0-0.2l0.1-0.7c0.1-0.4,0.2-0.7,0.4-0.9c0.2-0.2,0.5-0.3,0.8-0.3
			c0.5,0,0.7,0.2,0.9,0.7l0.5-0.2c-0.1-0.3-0.2-0.5-0.5-0.7c-0.2-0.2-0.5-0.3-0.9-0.3c-0.3,0-0.6,0.1-0.9,0.2
			c-0.3,0.1-0.5,0.3-0.6,0.6c-0.2,0.2-0.3,0.5-0.4,0.9c-0.1,0.3-0.1,0.7-0.1,1c0,0.3,0,0.5,0.1,0.7c0.1,0.2,0.2,0.4,0.3,0.5
			c0.1,0.2,0.3,0.3,0.5,0.4c0.2,0.1,0.4,0.1,0.6,0.1C46.2,56.2,46.5,56.1,46.8,55.9 M40.4,55.4c-0.1-0.2-0.2-0.4-0.2-0.7
			c0-0.1,0-0.3,0-0.4l0.1-0.6c0.1-0.4,0.2-0.7,0.5-1c0.2-0.2,0.5-0.3,0.8-0.3c0.2,0,0.3,0,0.5,0.1c0.1,0.1,0.2,0.1,0.3,0.2
			c0.1,0.1,0.1,0.2,0.1,0.3c0,0.1,0,0.2,0,0.4l-0.2,0.9c0,0.2-0.1,0.4-0.2,0.6c-0.1,0.2-0.2,0.3-0.3,0.5c-0.1,0.1-0.3,0.2-0.4,0.3
			c-0.1,0.1-0.3,0.1-0.5,0.1C40.7,55.6,40.5,55.6,40.4,55.4 M43.2,56.1l0.1-0.6h-0.6l0.7-3.7h-0.6l-0.1,0.7h0c0-0.1-0.1-0.2-0.2-0.3
			c-0.1-0.1-0.2-0.2-0.3-0.2c-0.1-0.1-0.2-0.1-0.3-0.1c-0.1,0-0.2,0-0.4,0c-0.3,0-0.6,0.1-0.9,0.3c-0.3,0.2-0.5,0.4-0.6,0.7
			s-0.3,0.6-0.4,0.9c-0.1,0.3-0.1,0.7-0.1,1c0,0.5,0.1,0.9,0.3,1.2c0.2,0.3,0.5,0.4,0.9,0.4c0.3,0,0.6-0.1,0.8-0.2
			c0.2-0.2,0.4-0.4,0.6-0.8h0l0,0.2c0,0.1,0,0.2,0,0.2c0,0.2,0,0.3,0.1,0.4c0.1,0.1,0.2,0.1,0.4,0.1H43.2z"/>
		<path class="st3" d="M124.9,45.6l-0.8,1.5h0l-0.2-1.5l-0.3-2.1H123l0.7,4.4l-0.5,1h-0.8l-0.1,0.5h0.7c0.2,0,0.4-0.1,0.5-0.2
			c0.1-0.1,0.3-0.3,0.4-0.5l2.8-5.2H126L124.9,45.6z M120.3,47.7l0.5-2.5c0-0.1,0.1-0.3,0.1-0.4c0.1-0.1,0.2-0.2,0.3-0.3
			c0.1-0.1,0.2-0.2,0.4-0.2c0.1-0.1,0.3-0.1,0.5-0.1h0.3l0.1-0.6h-0.3c-0.2,0-0.3,0-0.5,0.1c-0.1,0-0.2,0.1-0.3,0.2
			c-0.1,0.1-0.2,0.2-0.3,0.3s-0.1,0.2-0.2,0.3h0l0.2-0.8h-0.6l-0.8,4.2H120.3z M117.9,43.9c0.1,0,0.2,0.1,0.2,0.1
			c0.1,0,0.1,0.1,0.2,0.2c0,0.1,0.1,0.2,0.1,0.3c0,0.1,0,0.3-0.1,0.4s-0.2,0.2-0.3,0.3c-0.2,0.1-0.4,0.1-0.7,0.2
			c-0.3,0-0.6,0.1-1.1,0.1l0-0.2c0-0.2,0.1-0.4,0.2-0.5s0.2-0.3,0.3-0.4c0.1-0.1,0.2-0.2,0.4-0.3c0.1-0.1,0.3-0.1,0.5-0.1
			C117.7,43.9,117.8,43.9,117.9,43.9 M118,47.6c0.3-0.1,0.6-0.4,0.8-0.7l-0.4-0.4c-0.2,0.2-0.4,0.4-0.6,0.5
			c-0.2,0.1-0.5,0.2-0.7,0.2c-0.3,0-0.6-0.1-0.7-0.3c-0.2-0.2-0.3-0.4-0.3-0.7c0,0,0-0.1,0-0.2c0-0.1,0-0.1,0-0.2
			c1,0,1.7-0.1,2.2-0.4c0.5-0.2,0.7-0.6,0.7-1c0-0.2,0-0.4-0.1-0.5c-0.1-0.1-0.2-0.3-0.3-0.4c-0.1-0.1-0.3-0.2-0.4-0.2
			c-0.2,0-0.3-0.1-0.5-0.1c-0.3,0-0.6,0.1-0.9,0.2s-0.5,0.3-0.7,0.6c-0.2,0.2-0.3,0.5-0.4,0.9c-0.1,0.3-0.2,0.7-0.2,1
			c0,0.6,0.1,1,0.4,1.3c0.3,0.3,0.7,0.5,1.2,0.5C117.4,47.8,117.7,47.8,118,47.6 M113.1,47.7l2.3-4.2h-0.7l-1.1,2.1l-0.8,1.5h0
			l-0.2-1.5l-0.3-2.1h-0.6l0.6,4.2H113.1z M108,47c-0.2-0.2-0.2-0.4-0.2-0.7c0-0.1,0-0.2,0-0.4l0.1-0.6c0.1-0.4,0.2-0.8,0.5-1
			c0.2-0.2,0.5-0.3,0.8-0.3c0.3,0,0.6,0.1,0.7,0.3c0.2,0.2,0.2,0.4,0.2,0.7c0,0.1,0,0.2,0,0.4l-0.1,0.6c-0.1,0.4-0.3,0.8-0.5,1
			c-0.2,0.2-0.5,0.3-0.8,0.3C108.4,47.3,108.2,47.2,108,47 M109.6,47.6c0.3-0.1,0.5-0.3,0.7-0.6c0.2-0.2,0.3-0.5,0.4-0.9
			s0.2-0.7,0.2-1c0-0.3,0-0.5-0.1-0.8c-0.1-0.2-0.2-0.4-0.3-0.5s-0.3-0.3-0.5-0.3c-0.2-0.1-0.4-0.1-0.6-0.1c-0.3,0-0.6,0.1-0.9,0.2
			c-0.3,0.1-0.5,0.3-0.7,0.6c-0.2,0.2-0.3,0.5-0.4,0.9c-0.1,0.3-0.2,0.7-0.2,1c0,0.3,0,0.5,0.1,0.8c0.1,0.2,0.2,0.4,0.3,0.5
			c0.1,0.1,0.3,0.3,0.5,0.3c0.2,0.1,0.4,0.1,0.6,0.1C109,47.8,109.3,47.7,109.6,47.6 M105.7,47.5c0.3-0.2,0.5-0.5,0.7-0.8l-0.5-0.2
			c-0.2,0.3-0.3,0.5-0.5,0.7c-0.2,0.1-0.4,0.2-0.6,0.2c-0.3,0-0.6-0.1-0.7-0.3c-0.2-0.2-0.2-0.4-0.2-0.8c0,0,0-0.1,0-0.2
			c0-0.1,0-0.1,0-0.2l0.1-0.7c0.1-0.4,0.2-0.7,0.4-0.9c0.2-0.2,0.5-0.3,0.8-0.3c0.5,0,0.7,0.2,0.9,0.7l0.5-0.2
			c-0.1-0.3-0.2-0.5-0.5-0.7c-0.2-0.2-0.5-0.3-0.9-0.3c-0.3,0-0.6,0.1-0.9,0.2c-0.3,0.1-0.5,0.3-0.6,0.6c-0.2,0.2-0.3,0.5-0.4,0.9
			c-0.1,0.3-0.1,0.7-0.1,1c0,0.3,0,0.5,0.1,0.7c0.1,0.2,0.2,0.4,0.3,0.5c0.1,0.2,0.3,0.3,0.5,0.4c0.2,0.1,0.4,0.1,0.6,0.1
			C105.1,47.8,105.4,47.7,105.7,47.5 M101.2,47.7c0.2-0.1,0.4-0.2,0.5-0.3c0.1-0.1,0.2-0.3,0.3-0.4c0.1-0.2,0.1-0.4,0.1-0.6
			c0-0.2,0-0.3-0.1-0.5c-0.1-0.1-0.1-0.2-0.2-0.3c-0.1-0.1-0.2-0.2-0.4-0.2c-0.1-0.1-0.3-0.1-0.5-0.1l-0.3-0.1
			c-0.2,0-0.4-0.1-0.5-0.2c-0.1-0.1-0.1-0.2-0.1-0.4c0-0.2,0.1-0.4,0.2-0.5c0.1-0.1,0.4-0.2,0.7-0.2c0.2,0,0.5,0,0.6,0.1
			c0.2,0.1,0.3,0.2,0.4,0.3l0.4-0.4c-0.2-0.2-0.3-0.4-0.6-0.5c-0.2-0.1-0.5-0.2-0.8-0.2c-0.3,0-0.5,0-0.7,0.1
			c-0.2,0.1-0.4,0.2-0.5,0.3c-0.1,0.1-0.2,0.3-0.3,0.4c-0.1,0.2-0.1,0.3-0.1,0.5c0,0.2,0,0.3,0.1,0.4s0.1,0.2,0.2,0.3
			s0.2,0.2,0.4,0.2c0.1,0.1,0.3,0.1,0.4,0.1l0.3,0.1c0.2,0,0.4,0.1,0.5,0.2c0.1,0.1,0.1,0.2,0.1,0.4c0,0.3-0.1,0.5-0.3,0.6
			c-0.2,0.1-0.4,0.2-0.7,0.2c-0.2,0-0.5-0.1-0.7-0.2c-0.2-0.1-0.4-0.3-0.5-0.4L99,47c0.2,0.2,0.4,0.4,0.7,0.6
			c0.3,0.1,0.6,0.2,0.9,0.2C100.8,47.8,101,47.8,101.2,47.7 M98.1,47.7l0.1-0.6h-0.6l0.7-3.7h-0.6L97.1,47c0,0.1,0,0.1,0,0.2
			c0,0.2,0,0.3,0.1,0.4c0.1,0.1,0.2,0.1,0.4,0.1H98.1z M98.6,42.4c0.1-0.1,0.1-0.1,0.1-0.2c0-0.1,0-0.1,0-0.2c0,0,0-0.1,0-0.1
			c0-0.1,0-0.1-0.1-0.2c-0.1-0.1-0.1-0.1-0.3-0.1c-0.1,0-0.2,0-0.3,0.1C98.1,41.8,98,41.9,98,42c0,0.1,0,0.1,0,0.2c0,0,0,0.1,0,0.1
			c0,0.1,0,0.1,0.1,0.2s0.1,0.1,0.3,0.1C98.4,42.5,98.5,42.5,98.6,42.4 M93,47c-0.1-0.2-0.2-0.4-0.2-0.7c0-0.1,0-0.3,0-0.4l0.1-0.6
			c0.1-0.4,0.2-0.7,0.5-1c0.2-0.2,0.5-0.3,0.8-0.3c0.2,0,0.3,0,0.5,0.1c0.1,0.1,0.2,0.1,0.3,0.2s0.1,0.2,0.1,0.3c0,0.1,0,0.2,0,0.4
			l-0.2,0.9c0,0.2-0.1,0.4-0.2,0.6c-0.1,0.2-0.2,0.3-0.3,0.5c-0.1,0.1-0.3,0.2-0.4,0.3c-0.1,0.1-0.3,0.1-0.5,0.1
			C93.4,47.2,93.2,47.2,93,47 M95.9,47.7l0.1-0.6h-0.6l1.1-5.5h-0.6l-0.5,2.5h0c0-0.1-0.1-0.2-0.2-0.3c-0.1-0.1-0.2-0.2-0.3-0.2
			c-0.1-0.1-0.2-0.1-0.3-0.1c-0.1,0-0.2,0-0.4,0c-0.3,0-0.6,0.1-0.9,0.3c-0.3,0.2-0.5,0.4-0.6,0.7c-0.2,0.3-0.3,0.6-0.4,0.9
			c-0.1,0.3-0.1,0.7-0.1,1c0,0.5,0.1,0.9,0.3,1.2c0.2,0.3,0.5,0.4,0.9,0.4c0.3,0,0.6-0.1,0.8-0.2c0.2-0.2,0.4-0.4,0.6-0.8h0l0,0.2
			c0,0.1,0,0.2,0,0.2c0,0.2,0,0.3,0.1,0.4c0.1,0.1,0.2,0.1,0.4,0.1H95.9z M87.1,45.6c-0.1-0.1-0.2-0.3-0.2-0.5c0,0,0-0.1,0-0.2
			s0-0.2,0.1-0.3c0-0.2,0.2-0.4,0.3-0.6c0.2-0.1,0.4-0.2,0.7-0.2c0.3,0,0.5,0.1,0.6,0.2c0.1,0.1,0.2,0.3,0.2,0.5c0,0,0,0.1,0,0.2
			c0,0.1,0,0.2-0.1,0.3c0,0.2-0.2,0.4-0.3,0.6c-0.2,0.1-0.4,0.2-0.7,0.2C87.4,45.8,87.2,45.7,87.1,45.6 M88.4,48.7
			c-0.2,0.1-0.6,0.2-1,0.2H87c-0.2,0-0.3,0-0.4,0c-0.1,0-0.2-0.1-0.3-0.1c-0.1-0.1-0.1-0.1-0.1-0.2c0-0.1,0-0.2,0-0.2
			c0-0.3,0.2-0.5,0.5-0.7H88c0.3,0,0.4,0,0.5,0.1c0.1,0.1,0.1,0.2,0.1,0.4C88.7,48.4,88.6,48.6,88.4,48.7 M89,47.3
			c-0.2-0.2-0.5-0.2-1-0.2h-0.9c-0.4,0-0.6-0.1-0.6-0.3c0-0.1,0.1-0.3,0.2-0.3c0.1-0.1,0.3-0.1,0.5-0.2c0.1,0,0.1,0,0.2,0
			c0,0,0.1,0,0.2,0c0.3,0,0.5,0,0.7-0.1c0.2-0.1,0.4-0.2,0.6-0.4c0.2-0.2,0.3-0.3,0.4-0.5c0.1-0.2,0.1-0.4,0.1-0.7
			c0-0.3-0.1-0.6-0.3-0.8l0.1-0.3h0.7l0.1-0.6h-0.6c-0.2,0-0.3,0-0.4,0.2c-0.1,0.1-0.2,0.2-0.2,0.4l0,0.1c-0.2-0.1-0.5-0.2-0.8-0.2
			c-0.3,0-0.5,0-0.7,0.1c-0.2,0.1-0.4,0.2-0.6,0.4c-0.2,0.2-0.3,0.3-0.4,0.5c-0.1,0.2-0.1,0.4-0.1,0.7c0,0.5,0.2,0.9,0.6,1.1l0,0.1
			c-0.3,0.1-0.5,0.2-0.6,0.3C86,46.6,86,46.8,86,47c0,0.2,0.1,0.4,0.3,0.5l0,0.1c-0.3,0.1-0.5,0.2-0.6,0.4c-0.1,0.2-0.2,0.4-0.2,0.6
			c0,0.6,0.6,0.9,1.7,0.9c0.4,0,0.8,0,1.1-0.1c0.3-0.1,0.5-0.2,0.7-0.3c0.2-0.1,0.3-0.3,0.4-0.5c0.1-0.2,0.1-0.4,0.1-0.5
			C89.3,47.7,89.2,47.5,89,47.3 M81.8,47.7l0.5-2.4c0-0.2,0.1-0.4,0.2-0.6c0.1-0.2,0.2-0.4,0.4-0.5c0.2-0.2,0.5-0.3,0.8-0.3
			c0.2,0,0.4,0.1,0.5,0.2c0.1,0.1,0.2,0.3,0.2,0.5c0,0,0,0.1,0,0.2c0,0.1,0,0.2,0,0.2l-0.4,2c0,0,0,0.1,0,0.1v0.1
			c0,0.2,0,0.3,0.1,0.4c0.1,0.1,0.2,0.1,0.4,0.1h0.6l0.1-0.6h-0.6l0.4-2.1c0-0.1,0-0.2,0-0.3c0-0.1,0-0.2,0-0.3
			c0-0.4-0.1-0.7-0.3-0.9c-0.2-0.2-0.5-0.3-0.8-0.3c-0.3,0-0.6,0.1-0.8,0.2s-0.4,0.4-0.5,0.7h0l0.2-0.8H82l-0.8,4.2H81.8z
			 M80.2,47.7l0.1-0.6h-0.6l0.7-3.7h-0.6L79.1,47c0,0.1,0,0.1,0,0.2c0,0.2,0,0.3,0.1,0.4c0.1,0.1,0.2,0.1,0.4,0.1H80.2z M80.6,42.4
			c0.1-0.1,0.1-0.1,0.1-0.2c0-0.1,0-0.1,0-0.2c0,0,0-0.1,0-0.1c0-0.1,0-0.1-0.1-0.2c-0.1-0.1-0.1-0.1-0.3-0.1c-0.1,0-0.2,0-0.3,0.1
			C80.1,41.8,80,41.9,80,42c0,0.1,0,0.1,0,0.2c0,0,0,0.1,0,0.1c0,0.1,0,0.1,0.1,0.2c0.1,0.1,0.1,0.1,0.3,0.1
			C80.5,42.5,80.6,42.5,80.6,42.4 M77.8,47.7l0.1-0.6h-0.8l0.6-3.1h0.9l0.1-0.6h-0.9l0.2-1.2h-0.6l-0.2,0.8c0,0.1-0.1,0.3-0.1,0.3
			c-0.1,0.1-0.2,0.1-0.3,0.1h-0.3L76.5,44h0.6l-0.6,3c0,0.1,0,0.1,0,0.2c0,0.2,0,0.3,0.1,0.4c0.1,0.1,0.2,0.1,0.4,0.1H77.8z
			 M72.4,47c-0.1-0.2-0.2-0.4-0.2-0.7c0-0.1,0-0.3,0-0.4l0.1-0.6c0.1-0.4,0.2-0.7,0.5-1c0.2-0.2,0.5-0.3,0.8-0.3
			c0.2,0,0.3,0,0.5,0.1c0.1,0.1,0.2,0.1,0.3,0.2c0.1,0.1,0.1,0.2,0.1,0.3c0,0.1,0,0.2,0,0.4l-0.2,0.9c0,0.2-0.1,0.4-0.2,0.6
			c-0.1,0.2-0.2,0.3-0.3,0.5c-0.1,0.1-0.3,0.2-0.4,0.3c-0.1,0.1-0.3,0.1-0.5,0.1C72.7,47.2,72.5,47.2,72.4,47 M75.3,47.7l0.1-0.6
			h-0.6l0.7-3.7h-0.6l-0.1,0.7h0c0-0.1-0.1-0.2-0.2-0.3c-0.1-0.1-0.2-0.2-0.3-0.2c-0.1-0.1-0.2-0.1-0.3-0.1c-0.1,0-0.2,0-0.4,0
			c-0.3,0-0.6,0.1-0.9,0.3c-0.3,0.2-0.5,0.4-0.6,0.7c-0.2,0.3-0.3,0.6-0.4,0.9c-0.1,0.3-0.1,0.7-0.1,1c0,0.5,0.1,0.9,0.3,1.2
			c0.2,0.3,0.5,0.4,0.9,0.4c0.3,0,0.6-0.1,0.8-0.2c0.2-0.2,0.4-0.4,0.6-0.8h0l0,0.2c0,0.1,0,0.2,0,0.2c0,0.2,0,0.3,0.1,0.4
			c0.1,0.1,0.2,0.1,0.4,0.1H75.3z M69.1,47.7l0.5-2.5c0-0.1,0.1-0.3,0.1-0.4c0.1-0.1,0.2-0.2,0.3-0.3c0.1-0.1,0.2-0.2,0.4-0.2
			c0.1-0.1,0.3-0.1,0.5-0.1h0.3l0.1-0.6h-0.3c-0.2,0-0.3,0-0.5,0.1c-0.1,0-0.2,0.1-0.3,0.2c-0.1,0.1-0.2,0.2-0.3,0.3
			s-0.1,0.2-0.2,0.3h0l0.2-0.8h-0.6l-0.8,4.2H69.1z M66.8,43.9c0.1,0,0.2,0.1,0.2,0.1c0.1,0,0.1,0.1,0.2,0.2c0,0.1,0.1,0.2,0.1,0.3
			c0,0.1,0,0.3-0.1,0.4s-0.2,0.2-0.3,0.3c-0.2,0.1-0.4,0.1-0.7,0.2c-0.3,0-0.6,0.1-1.1,0.1l0-0.2c0-0.2,0.1-0.4,0.2-0.5
			c0.1-0.2,0.2-0.3,0.3-0.4c0.1-0.1,0.2-0.2,0.4-0.3c0.2-0.1,0.3-0.1,0.5-0.1C66.6,43.9,66.7,43.9,66.8,43.9 M66.8,47.6
			c0.3-0.1,0.6-0.4,0.8-0.7l-0.4-0.4c-0.2,0.2-0.4,0.4-0.6,0.5c-0.2,0.1-0.5,0.2-0.7,0.2c-0.3,0-0.6-0.1-0.7-0.3
			C65,46.8,65,46.6,65,46.3c0,0,0-0.1,0-0.2c0-0.1,0-0.1,0-0.2c1,0,1.7-0.1,2.2-0.4c0.5-0.2,0.7-0.6,0.7-1c0-0.2,0-0.4-0.1-0.5
			c-0.1-0.1-0.2-0.3-0.3-0.4c-0.1-0.1-0.3-0.2-0.4-0.2c-0.2,0-0.3-0.1-0.5-0.1c-0.3,0-0.6,0.1-0.9,0.2s-0.5,0.3-0.7,0.6
			c-0.2,0.2-0.3,0.5-0.4,0.9c-0.1,0.3-0.2,0.7-0.2,1c0,0.6,0.1,1,0.4,1.3c0.3,0.3,0.7,0.5,1.2,0.5C66.2,47.8,66.5,47.8,66.8,47.6
			 M63.3,47.7l0.1-0.6h-0.6l1.1-5.5h-0.6L62.1,47c0,0.1,0,0.1,0,0.2c0,0.2,0,0.3,0.1,0.4c0.1,0.1,0.2,0.1,0.4,0.1H63.3z M60.3,43.9
			c0.1,0,0.2,0.1,0.2,0.1c0.1,0,0.1,0.1,0.2,0.2c0,0.1,0.1,0.2,0.1,0.3c0,0.1,0,0.3-0.1,0.4s-0.2,0.2-0.3,0.3
			c-0.2,0.1-0.4,0.1-0.7,0.2c-0.3,0-0.6,0.1-1.1,0.1l0-0.2c0-0.2,0.1-0.4,0.2-0.5c0.1-0.2,0.2-0.3,0.3-0.4c0.1-0.1,0.2-0.2,0.4-0.3
			c0.2-0.1,0.3-0.1,0.5-0.1C60.1,43.9,60.2,43.9,60.3,43.9 M60.3,47.6c0.3-0.1,0.6-0.4,0.8-0.7l-0.4-0.4c-0.2,0.2-0.4,0.4-0.6,0.5
			c-0.2,0.1-0.5,0.2-0.7,0.2c-0.3,0-0.6-0.1-0.7-0.3c-0.2-0.2-0.3-0.4-0.3-0.7c0,0,0-0.1,0-0.2c0-0.1,0-0.1,0-0.2
			c1,0,1.7-0.1,2.2-0.4c0.5-0.2,0.7-0.6,0.7-1c0-0.2,0-0.4-0.1-0.5c-0.1-0.1-0.2-0.3-0.3-0.4c-0.1-0.1-0.3-0.2-0.4-0.2
			c-0.2,0-0.3-0.1-0.5-0.1c-0.3,0-0.6,0.1-0.9,0.2c-0.3,0.1-0.5,0.3-0.7,0.6c-0.2,0.2-0.3,0.5-0.4,0.9c-0.1,0.3-0.2,0.7-0.2,1
			c0,0.6,0.1,1,0.4,1.3c0.3,0.3,0.7,0.5,1.2,0.5C59.8,47.8,60.1,47.8,60.3,47.6 M56.3,47.5c0.3-0.2,0.5-0.5,0.7-0.8l-0.5-0.2
			c-0.2,0.3-0.3,0.5-0.5,0.7c-0.2,0.1-0.4,0.2-0.6,0.2c-0.3,0-0.6-0.1-0.7-0.3c-0.2-0.2-0.2-0.4-0.2-0.8c0,0,0-0.1,0-0.2
			c0-0.1,0-0.1,0-0.2l0.1-0.7c0.1-0.4,0.2-0.7,0.4-0.9c0.2-0.2,0.5-0.3,0.8-0.3c0.5,0,0.7,0.2,0.9,0.7l0.5-0.2
			c-0.1-0.3-0.2-0.5-0.5-0.7c-0.2-0.2-0.5-0.3-0.9-0.3c-0.3,0-0.6,0.1-0.9,0.2c-0.3,0.1-0.5,0.3-0.6,0.6c-0.2,0.2-0.3,0.5-0.4,0.9
			c-0.1,0.3-0.1,0.7-0.1,1c0,0.3,0,0.5,0.1,0.7c0.1,0.2,0.2,0.4,0.3,0.5c0.1,0.2,0.3,0.3,0.5,0.4c0.2,0.1,0.4,0.1,0.6,0.1
			C55.7,47.8,56.1,47.7,56.3,47.5 M52.3,47.5c0.3-0.2,0.5-0.5,0.7-0.8l-0.5-0.2c-0.2,0.3-0.3,0.5-0.5,0.7c-0.2,0.1-0.4,0.2-0.6,0.2
			c-0.3,0-0.6-0.1-0.7-0.3c-0.2-0.2-0.2-0.4-0.2-0.8c0,0,0-0.1,0-0.2c0-0.1,0-0.1,0-0.2l0.1-0.7c0.1-0.4,0.2-0.7,0.4-0.9
			c0.2-0.2,0.5-0.3,0.8-0.3c0.5,0,0.7,0.2,0.9,0.7l0.5-0.2c-0.1-0.3-0.2-0.5-0.5-0.7c-0.2-0.2-0.5-0.3-0.9-0.3
			c-0.3,0-0.6,0.1-0.9,0.2c-0.3,0.1-0.5,0.3-0.6,0.6c-0.2,0.2-0.3,0.5-0.4,0.9c-0.1,0.3-0.1,0.7-0.1,1c0,0.3,0,0.5,0.1,0.7
			c0.1,0.2,0.2,0.4,0.3,0.5c0.1,0.2,0.3,0.3,0.5,0.4c0.2,0.1,0.4,0.1,0.6,0.1C51.7,47.8,52.1,47.7,52.3,47.5 M45.9,47
			c-0.1-0.2-0.2-0.4-0.2-0.7c0-0.1,0-0.3,0-0.4l0.1-0.6c0.1-0.4,0.2-0.7,0.5-1c0.2-0.2,0.5-0.3,0.8-0.3c0.2,0,0.3,0,0.5,0.1
			c0.1,0.1,0.2,0.1,0.3,0.2c0.1,0.1,0.1,0.2,0.1,0.3c0,0.1,0,0.2,0,0.4l-0.2,0.9c0,0.2-0.1,0.4-0.2,0.6c-0.1,0.2-0.2,0.3-0.3,0.5
			c-0.1,0.1-0.3,0.2-0.4,0.3c-0.1,0.1-0.3,0.1-0.5,0.1C46.2,47.2,46,47.2,45.9,47 M48.8,47.7l0.1-0.6h-0.6l0.7-3.7h-0.6l-0.1,0.7h0
			c0-0.1-0.1-0.2-0.2-0.3c-0.1-0.1-0.2-0.2-0.3-0.2c-0.1-0.1-0.2-0.1-0.3-0.1c-0.1,0-0.2,0-0.4,0c-0.3,0-0.6,0.1-0.9,0.3
			c-0.3,0.2-0.5,0.4-0.6,0.7c-0.2,0.3-0.3,0.6-0.4,0.9c-0.1,0.3-0.1,0.7-0.1,1c0,0.5,0.1,0.9,0.3,1.2c0.2,0.3,0.5,0.4,0.9,0.4
			c0.3,0,0.6-0.1,0.8-0.2c0.2-0.2,0.4-0.4,0.6-0.8h0l0,0.2c0,0.1,0,0.2,0,0.2c0,0.2,0,0.3,0.1,0.4c0.1,0.1,0.2,0.1,0.4,0.1H48.8z"/>
		<path class="st3" d="M145.1,55.1c-0.4-0.6-0.6-1.4-0.6-2.4c0-0.3,0-0.7,0-1c0-0.3,0.1-0.7,0.2-1.1l0.6-3.2
			c0.2-0.8,0.3-1.5,0.5-2.1c0.2-0.7,0.5-1.2,0.8-1.7c0.3-0.5,0.6-0.8,1.1-1.1c0.4-0.3,0.9-0.4,1.4-0.4c0.9,0,1.5,0.3,1.9,0.9
			c0.4,0.6,0.6,1.4,0.6,2.4c0,0.3,0,0.7,0,1c0,0.3-0.1,0.7-0.2,1.1l-0.6,3.2c-0.2,0.8-0.3,1.5-0.5,2.2c-0.2,0.6-0.5,1.2-0.8,1.7
			c-0.3,0.5-0.7,0.8-1.1,1.1c-0.4,0.3-0.9,0.4-1.4,0.4C146.1,56,145.5,55.7,145.1,55.1 M150.2,57.7c1-0.7,1.9-1.7,2.6-2.9
			c0.7-1.2,1.2-2.6,1.6-4.1c0.3-1.5,0.5-3.1,0.5-4.6c0-0.8-0.1-1.7-0.2-2.5c-0.2-0.8-0.5-1.6-0.9-2.2c-0.4-0.6-1-1.1-1.7-1.5
			c-0.7-0.4-1.6-0.6-2.6-0.6c-1.3,0-2.5,0.4-3.5,1.1c-1,0.7-1.9,1.7-2.6,2.9c-0.7,1.2-1.2,2.6-1.6,4.1c-0.3,1.5-0.5,3.1-0.5,4.6
			c0,0.9,0.1,1.7,0.2,2.5c0.2,0.8,0.5,1.5,0.9,2.2c0.4,0.6,1,1.2,1.7,1.5c0.7,0.4,1.6,0.6,2.6,0.6C148,58.8,149.2,58.5,150.2,57.7
			 M139,55.6h-8.3l4.5-3.4c0.8-0.7,1.6-1.3,2.3-1.9c0.7-0.6,1.3-1.2,1.7-1.8c0.5-0.6,0.8-1.3,1.1-2c0.3-0.7,0.4-1.4,0.4-2.2
			c0-0.7-0.1-1.4-0.4-2.1c-0.3-0.6-0.6-1.2-1.1-1.6c-0.5-0.4-1.1-0.8-1.7-1c-0.7-0.3-1.4-0.4-2.3-0.4c-0.8,0-1.6,0.1-2.3,0.4
			c-0.7,0.2-1.3,0.6-1.8,1c-0.5,0.4-1,0.9-1.4,1.5c-0.4,0.6-0.7,1.2-1,1.9l2.8,1.2c0.3-0.8,0.8-1.5,1.3-2.1c0.5-0.6,1.2-0.8,2.1-0.8
			c0.8,0,1.3,0.2,1.7,0.7c0.4,0.5,0.6,1,0.6,1.6c0,0.3,0,0.6-0.1,0.9c-0.1,0.7-0.5,1.4-1,2.1c-0.5,0.7-1.3,1.5-2.5,2.4l-6.6,5.2
			l-0.6,3.3h12.1L139,55.6z"/>
	</g>
	<g>
		<path class="st0" d="M178.4,20.4h-17.9v2.4h7.6v13.6h2.6V22.8h7.6V20.4z M157.8,34h-14.1v-4.7h9.3v-2.4h-9.3v-4.1h13.4v-2.4h-16.1
			v16h16.7V34z M134.5,20.4h-2.6v13.1l-12.2-13.1h-3.3v16h2.6V23.3l12.2,13.1h3.3V20.4z M110.6,34H96.5v-4.7h9.3v-2.4h-9.3v-4.1H110
			v-2.4H93.9v16h16.7V34z M79.4,19.9c-2.8,0-5.1,0.7-7,2.1c-2.2,1.6-3.2,3.7-3.2,6.3c0,2.6,1.1,4.7,3.2,6.3c1.9,1.4,4.2,2.1,7,2.1
			c2,0,3.7-0.3,5.2-0.9c1.4-0.6,2.7-1.6,3.9-2.9l-2.3-1.3c-1.6,1.7-3.8,2.6-6.7,2.6c-2.3,0-4.2-0.6-5.6-1.7
			c-1.4-1.1-2.1-2.6-2.1-4.4c0-1.7,0.7-3.2,2.1-4.3c1.4-1.1,3.2-1.7,5.4-1.7c2.9,0,5.2,0.9,6.8,2.6l2.4-0.9
			C86.4,21.3,83.4,19.9,79.4,19.9 M53.6,30.4l4.1-7.7l4.1,7.7H53.6z M59.4,20.4h-3.3l-8.4,16h2.9l1.8-3.6h10.8l1.8,3.6h2.9
			L59.4,20.4z"/>
	</g>
	<linearGradient id="SVGID_1_" gradientUnits="userSpaceOnUse" x1="53.1682" y1="3.6527" x2="2.3157" y2="47.0849">
		<stop  offset="0.161" style="stop-color:#574A9E"/>
		<stop  offset="0.7006" style="stop-color:#19B7BC"/>
		<stop  offset="1" style="stop-color:#FFFFFF"/>
	</linearGradient>
	<path class="st1" d="M1.6,26.3l1.3,0.8L7,23.9l-5.2,2.3L1.6,26.3L1.6,26.3z M6.3,29.2l1.2,0.7l17.7-14l-8.5,3.7L6.3,29.2L6.3,29.2z
		 M20.6,45.9l11-8.7l5-7.8L20.1,44.6L20.6,45.9L20.6,45.9z M18.6,40.9l21.7-17.2l7.2-11.3L18.1,39.5L18.6,40.9L18.6,40.9z M53.2,3.6
		L46,6.8L2.3,47c0,0,0,0,0,0.1c0,0,0,0,0.1,0.1l46.6-36.9L53.2,3.6L53.2,3.6z M31.4,13.2L11,32l1.3,0.7L43.7,7.8L31.4,13.2
		L31.4,13.2z M22.1,49.6l0.6,1.4l0.2-0.1l3-4.7L22.1,49.6L22.1,49.6z"/>
</g>
</svg>
