<?xml version="1.0" encoding="utf-8"?>
<!-- Generator: Adobe Illustrator 25.4.1, SVG Export Plug-In . SVG Version: 6.00 Build 0)  -->
<svg version="1.1" id="Layer_1" xmlns="http://www.w3.org/2000/svg" xmlns:xlink="http://www.w3.org/1999/xlink" x="0px" y="0px"
	 viewBox="0 0 180 64.8" style="enable-background:new 0 0 180 64.8;" xml:space="preserve">
<style type="text/css">
	.st0{fill:#364CA0;}
	.st1{fill:url(#SVGID_1_);}
</style>
<g>
	<g>
		<path class="st0" d="M178.5,20h-17.9v2.4h7.6V36h2.6V22.4h7.6L178.5,20L178.5,20z M158,33.6h-14.1v-4.7h9.3v-2.4h-9.3v-4.1h13.4
			V20h-16.1v16H158V33.6z M134.6,20H132v13.1L119.8,20h-3.3v16h2.6V22.9L131.3,36h3.3V20z M110.7,33.6h-14v-4.7h9.3v-2.4h-9.3v-4.1
			h13.4V20H94v16h16.7V33.6z M79.5,19.5c-2.8,0-5.1,0.7-7,2.1c-2.2,1.6-3.2,3.7-3.2,6.3s1.1,4.7,3.2,6.3c1.9,1.4,4.2,2.1,7,2.1
			c2,0,3.7-0.3,5.2-0.9c1.4-0.6,2.7-1.6,3.9-2.9l-2.3-1.3c-1.6,1.7-3.8,2.6-6.7,2.6c-2.3,0-4.2-0.6-5.6-1.7c-1.3-0.9-2-2.3-2-4.1
			c0-1.7,0.7-3.2,2.1-4.3c1.4-1.1,3.2-1.7,5.4-1.7c2.9,0,5.2,0.9,6.8,2.6l2.4-0.9C86.6,20.9,83.5,19.5,79.5,19.5 M53.8,30l4.1-7.7
			L62,30H53.8z M59.5,20h-3.3l-8.4,16h2.9l1.8-3.6h10.8l1.8,3.6H68L59.5,20z"/>
	</g>
	
		<linearGradient id="SVGID_1_" gradientUnits="userSpaceOnUse" x1="53.0632" y1="62.7431" x2="2.1991" y2="19.3011" gradientTransform="matrix(1 0 0 -1 0 66)">
		<stop  offset="0.161" style="stop-color:#574A9E"/>
		<stop  offset="0.7006" style="stop-color:#19B7BC"/>
		<stop  offset="1" style="stop-color:#FFFFFF"/>
	</linearGradient>
	<path class="st1" d="M1.5,25.9l1.3,0.8l4.1-3.2l-5.2,2.3L1.5,25.9L1.5,25.9z M6.2,28.8l1.2,0.7l17.7-14l-8.5,3.7L6.2,28.8L6.2,28.8
		z M20.5,45.5l11-8.7l5-7.8L20,44.2L20.5,45.5L20.5,45.5z M18.5,40.5l21.7-17.2L47.4,12L18,39.1L18.5,40.5L18.5,40.5z M53.1,3.3
		L46,6.4L2.2,46.6c0,0,0,0,0,0.1c0,0,0,0,0.1,0.1L48.8,9.9L53.1,3.3L53.1,3.3z M31.3,12.8L10.9,31.6l1.3,0.7L43.6,7.4L31.3,12.8
		L31.3,12.8z M22,49.2l0.6,1.4l0.2-0.1l3-4.7L22,49.2L22,49.2z"/>
	<g>
		<path d="M67.6,49.8c-0.2,0-0.4-0.1-0.5-0.2c-0.1-0.1-0.2-0.3-0.2-0.5c0-0.1,0-0.2,0-0.3l0.1-0.2l0,0c-0.2,0.5-0.5,0.8-0.7,1
			c-0.3,0.2-0.6,0.3-1,0.3c-0.5,0-0.9-0.2-1.2-0.6c-0.3-0.4-0.5-0.9-0.5-1.5c0-0.4,0.1-0.8,0.2-1.2c0.1-0.4,0.3-0.8,0.5-1.2
			s0.5-0.6,0.8-0.9c0.3-0.2,0.7-0.3,1.2-0.3c0.2,0,0.3,0,0.5,0.1c0.2,0,0.3,0.1,0.4,0.2s0.2,0.2,0.3,0.3s0.2,0.3,0.2,0.4l0,0
			l0.2-0.9h0.8L67.8,49h0.8l-0.1,0.7h-0.9V49.8z M65.4,49.2c0.2,0,0.4,0,0.6-0.1s0.4-0.2,0.5-0.4c0.2-0.2,0.3-0.4,0.4-0.6
			c0.1-0.2,0.2-0.4,0.2-0.7l0.2-1.1c0-0.2,0-0.3,0-0.5s-0.1-0.3-0.2-0.4c-0.1-0.1-0.2-0.2-0.4-0.3c0-0.1-0.2-0.1-0.5-0.1
			c-0.4,0-0.8,0.1-1.1,0.4s-0.5,0.7-0.6,1.2l-0.2,0.8c0,0.2-0.1,0.4-0.1,0.5c0,0.4,0.1,0.7,0.3,0.9C64.8,49.1,65,49.2,65.4,49.2z"/>
		<path d="M71.7,49.9c-0.3,0-0.6-0.1-0.8-0.2c-0.2-0.1-0.4-0.3-0.6-0.5s-0.3-0.4-0.4-0.7s-0.1-0.6-0.1-0.9c0-0.5,0.1-0.9,0.2-1.3
			s0.3-0.8,0.5-1.1s0.5-0.6,0.8-0.7c0.3-0.2,0.7-0.3,1.1-0.3c0.5,0,0.9,0.1,1.2,0.4c0.3,0.2,0.5,0.5,0.6,0.9l-0.7,0.3
			c-0.2-0.6-0.6-0.9-1.1-0.9c-0.4,0-0.8,0.1-1.1,0.4s-0.5,0.7-0.6,1.1l-0.2,0.9c0,0.1,0,0.2,0,0.2c0,0.1,0,0.2,0,0.2
			c0,0.4,0.1,0.7,0.3,1c0.2,0.2,0.5,0.4,0.9,0.4c0.3,0,0.5-0.1,0.7-0.2c0.2-0.2,0.4-0.4,0.7-0.8l0.6,0.3c-0.2,0.5-0.5,0.8-0.9,1.1
			C72.5,49.8,72.1,49.9,71.7,49.9z"/>
		<path d="M76.9,49.9c-0.3,0-0.6-0.1-0.8-0.2c-0.2-0.1-0.4-0.3-0.6-0.5s-0.3-0.4-0.4-0.7C75,48.4,75,48.1,75,47.7
			c0-0.5,0.1-0.9,0.2-1.3s0.3-0.8,0.5-1.1s0.5-0.6,0.8-0.7c0.3-0.2,0.7-0.3,1.1-0.3c0.5,0,0.9,0.1,1.2,0.4c0.3,0.2,0.5,0.5,0.6,0.9
			l-0.7,0.3c-0.2-0.6-0.6-0.9-1.1-0.9c-0.4,0-0.8,0.1-1.1,0.4S76.1,46,76,46.5l-0.2,0.9c0,0.1,0,0.2,0,0.2c0,0.1,0,0.2,0,0.2
			c0,0.4,0.1,0.7,0.3,1c0.2,0.2,0.5,0.4,0.9,0.4c0.3,0,0.5-0.1,0.7-0.2c0.2-0.2,0.4-0.4,0.7-0.8l0.6,0.3c-0.2,0.5-0.5,0.8-0.9,1.1
			C77.8,49.8,77.4,49.9,76.9,49.9z"/>
		<path d="M82.3,49.9c-0.7,0-1.2-0.2-1.5-0.6c-0.4-0.4-0.5-0.9-0.5-1.7c0-0.4,0.1-0.9,0.2-1.3c0.1-0.4,0.3-0.8,0.6-1.1
			c0.2-0.3,0.5-0.6,0.9-0.8s0.7-0.3,1.2-0.3c0.2,0,0.5,0,0.7,0.1s0.4,0.1,0.6,0.3c0.2,0.1,0.3,0.3,0.4,0.5s0.1,0.4,0.1,0.6
			c0,0.6-0.3,1-0.9,1.3s-1.6,0.4-2.8,0.5c0,0.1,0,0.2,0,0.2s0,0.1,0,0.2c0,0.4,0.1,0.7,0.3,0.9c0.2,0.2,0.5,0.4,1,0.4
			c0.3,0,0.7-0.1,0.9-0.2c0.3-0.2,0.5-0.4,0.7-0.6l0.5,0.5c-0.3,0.4-0.7,0.7-1.1,0.9C83.1,49.8,82.7,49.9,82.3,49.9z M83,45
			c-0.2,0-0.4,0-0.6,0.1s-0.4,0.2-0.5,0.3s-0.3,0.3-0.4,0.5s-0.2,0.4-0.2,0.7l-0.1,0.3c0.6,0,1.1-0.1,1.4-0.1s0.6-0.1,0.9-0.2
			c0.2-0.1,0.3-0.2,0.4-0.3S84,46,84,45.8c0-0.1,0-0.3-0.1-0.4c-0.1-0.1-0.1-0.2-0.2-0.2c-0.1-0.1-0.2-0.1-0.3-0.1
			C83.3,45,83.1,45,83,45z"/>
		<path d="M86.5,49.8c-0.2,0-0.4-0.1-0.6-0.2c-0.1-0.1-0.2-0.3-0.2-0.5c0-0.1,0-0.1,0-0.3l1.4-6.9H88L86.6,49h0.8l-0.1,0.7h-0.8
			V49.8z"/>
		<path d="M90.7,49.9c-0.7,0-1.2-0.2-1.5-0.6c-0.4-0.4-0.5-0.9-0.5-1.7c0-0.4,0.1-0.9,0.2-1.3c0.1-0.4,0.3-0.8,0.6-1.1
			c0.2-0.3,0.5-0.6,0.9-0.8s0.7-0.3,1.2-0.3c0.2,0,0.5,0,0.7,0.1s0.4,0.1,0.6,0.3c0.2,0.1,0.3,0.3,0.4,0.5s0.1,0.4,0.1,0.6
			c0,0.6-0.3,1-0.9,1.3s-1.6,0.4-2.8,0.5c0,0.1,0,0.2,0,0.2s0,0.1,0,0.2c0,0.4,0.1,0.7,0.3,0.9c0.2,0.2,0.5,0.4,1,0.4
			c0.3,0,0.7-0.1,0.9-0.2c0.3-0.2,0.5-0.4,0.7-0.6l0.5,0.5c-0.3,0.4-0.7,0.7-1.1,0.9C91.5,49.8,91.1,49.9,90.7,49.9z M91.4,45
			c-0.2,0-0.4,0-0.6,0.1s-0.4,0.2-0.5,0.3s-0.3,0.3-0.4,0.5s-0.2,0.4-0.2,0.7l-0.1,0.3c0.6,0,1.1-0.1,1.4-0.1s0.6-0.1,0.9-0.2
			c0.2-0.1,0.3-0.2,0.4-0.3s0.1-0.3,0.1-0.5c0-0.1,0-0.3-0.1-0.4c-0.1-0.1-0.1-0.2-0.2-0.2C92,45.1,91.9,45,91.8,45
			C91.7,45,91.6,45,91.4,45z"/>
		<path d="M94.1,49.8l1.1-5.4H96l-0.2,1.1h0.1c0.1-0.1,0.2-0.3,0.3-0.4c0.1-0.1,0.2-0.2,0.3-0.3c0.1-0.1,0.3-0.2,0.4-0.2
			s0.4-0.1,0.6-0.1h0.3l-0.2,0.8h-0.4c-0.3,0-0.5,0-0.7,0.1s-0.4,0.2-0.5,0.3s-0.3,0.3-0.3,0.4c-0.1,0.2-0.1,0.3-0.2,0.5l-0.7,3.2
			C94.8,49.8,94.1,49.8,94.1,49.8z"/>
		<path d="M102.2,49.8c-0.2,0-0.4-0.1-0.5-0.2c-0.1-0.1-0.2-0.3-0.2-0.5c0-0.1,0-0.2,0-0.3l0.1-0.2l0,0c-0.2,0.5-0.5,0.8-0.7,1
			c-0.3,0.2-0.6,0.3-1,0.3c-0.5,0-0.9-0.2-1.2-0.6c-0.3-0.4-0.5-0.9-0.5-1.5c0-0.4,0.1-0.8,0.2-1.2s0.3-0.8,0.5-1.2s0.5-0.6,0.8-0.9
			c0.3-0.2,0.7-0.3,1.2-0.3c0.2,0,0.3,0,0.5,0.1c0.2,0,0.3,0.1,0.4,0.2s0.2,0.2,0.3,0.3s0.2,0.3,0.2,0.4l0,0l0.2-0.9h0.8l-0.9,4.7
			h0.8l-0.1,0.7h-0.9V49.8z M100.1,49.2c0.2,0,0.4,0,0.6-0.1s0.4-0.2,0.5-0.4c0.2-0.2,0.3-0.4,0.4-0.6c0.1-0.2,0.2-0.4,0.2-0.7
			l0.2-1.1c0-0.2,0-0.3,0-0.5s-0.1-0.3-0.2-0.4c-0.1-0.1-0.2-0.2-0.4-0.3c-0.2-0.1-0.4-0.1-0.6-0.1c-0.4,0-0.8,0.1-1.1,0.4
			s-0.5,0.7-0.6,1.2l-0.2,0.8c0,0.2-0.1,0.4-0.1,0.5c0,0.4,0.1,0.7,0.3,0.9C99.5,49.1,99.7,49.2,100.1,49.2z"/>
		<path d="M105.8,49.8c-0.2,0-0.4-0.1-0.6-0.2c-0.1-0.1-0.2-0.3-0.2-0.5c0-0.1,0-0.1,0-0.3l0.8-3.8H105l0.1-0.7h0.4
			c0.2,0,0.3,0,0.4-0.1s0.1-0.2,0.2-0.4l0.2-1h0.7l-0.3,1.5h1.1l-0.1,0.7h-1.1l-0.8,4h1.1l-0.1,0.7L105.8,49.8L105.8,49.8z"/>
		<path d="M110.4,49.9c-0.7,0-1.2-0.2-1.5-0.6c-0.4-0.4-0.5-0.9-0.5-1.7c0-0.4,0.1-0.9,0.2-1.3c0.1-0.4,0.3-0.8,0.6-1.1
			c0.2-0.3,0.5-0.6,0.9-0.8s0.7-0.3,1.2-0.3c0.2,0,0.5,0,0.7,0.1s0.4,0.1,0.6,0.3c0.2,0.1,0.3,0.3,0.4,0.5s0.1,0.4,0.1,0.6
			c0,0.6-0.3,1-0.9,1.3s-1.6,0.4-2.8,0.5c0,0.1,0,0.2,0,0.2s0,0.1,0,0.2c0,0.4,0.1,0.7,0.3,0.9c0.2,0.2,0.5,0.4,1,0.4
			c0.3,0,0.7-0.1,0.9-0.2c0.3-0.2,0.5-0.4,0.7-0.6l0.5,0.5c-0.3,0.4-0.7,0.7-1.1,0.9C111.2,49.8,110.8,49.9,110.4,49.9z M111.1,45
			c-0.2,0-0.4,0-0.6,0.1s-0.4,0.2-0.5,0.3s-0.3,0.3-0.4,0.5s-0.2,0.4-0.2,0.7l-0.1,0.3c0.6,0,1.1-0.1,1.4-0.1s0.6-0.1,0.9-0.2
			c0.2-0.1,0.3-0.2,0.4-0.3s0.1-0.3,0.1-0.5c0-0.1,0-0.3-0.1-0.4c-0.1-0.1-0.1-0.2-0.2-0.2c-0.1-0.1-0.2-0.1-0.3-0.1
			C111.3,45,111.2,45,111.1,45z"/>
		<path d="M120.9,49.8c-0.2,0-0.4-0.1-0.5-0.2c-0.1-0.1-0.2-0.3-0.2-0.5c0-0.1,0-0.2,0-0.3l0.1-0.2l0,0c-0.2,0.5-0.5,0.8-0.7,1
			c-0.3,0.2-0.6,0.3-1,0.3c-0.5,0-0.9-0.2-1.2-0.6c-0.3-0.4-0.5-0.9-0.5-1.5c0-0.4,0.1-0.8,0.2-1.2s0.3-0.8,0.5-1.2s0.5-0.6,0.8-0.9
			c0.3-0.2,0.7-0.3,1.2-0.3c0.2,0,0.3,0,0.5,0.1c0.2,0,0.3,0.1,0.4,0.2s0.2,0.2,0.3,0.3s0.2,0.3,0.2,0.4l0,0l0.7-3.2h0.8l-1.4,7.1
			h0.8l-0.1,0.7C121.8,49.8,120.9,49.8,120.9,49.8z M118.7,49.2c0.2,0,0.4,0,0.6-0.1s0.3-0.2,0.5-0.4s0.3-0.4,0.4-0.6
			c0.1-0.2,0.2-0.5,0.3-0.7l0.2-1.1c0-0.2,0-0.3,0-0.5s-0.1-0.3-0.2-0.4c-0.1-0.1-0.2-0.2-0.4-0.3c-0.2-0.1-0.4-0.1-0.6-0.1
			c-0.4,0-0.8,0.1-1.1,0.4s-0.5,0.7-0.6,1.2l-0.2,0.8c0,0.2-0.1,0.4-0.1,0.5c0,0.4,0.1,0.7,0.2,0.9
			C118.1,49.1,118.3,49.2,118.7,49.2z"/>
		<path d="M123.8,49.8c-0.2,0-0.4-0.1-0.6-0.2c-0.1-0.1-0.2-0.3-0.2-0.5c0-0.1,0-0.1,0-0.3l0.9-4.5h0.8l-0.9,4.7h0.8l-0.1,0.7
			L123.8,49.8L123.8,49.8z M124.7,43.1c-0.2,0-0.3,0-0.3-0.1c-0.1-0.1-0.1-0.2-0.1-0.3v-0.1c0,0,0-0.1,0-0.2c0-0.1,0.1-0.2,0.2-0.3
			s0.2-0.1,0.4-0.1c0.2,0,0.3,0,0.3,0.1c0.1,0.1,0.1,0.2,0.1,0.3v0.1c0,0,0,0.1,0,0.2c0,0.1-0.1,0.2-0.2,0.3S124.9,43.1,124.7,43.1z
			"/>
		<path d="M127.8,49.9c-0.4,0-0.8-0.1-1.2-0.3s-0.7-0.4-0.9-0.7l0.6-0.5c0.2,0.2,0.4,0.4,0.7,0.6s0.5,0.2,0.8,0.2
			c0.4,0,0.7-0.1,0.9-0.3s0.3-0.4,0.3-0.8c0-0.2-0.1-0.3-0.2-0.5c-0.1-0.1-0.3-0.2-0.6-0.3l-0.4-0.1c-0.2,0-0.4-0.1-0.6-0.2
			c-0.2-0.1-0.3-0.2-0.5-0.3c-0.1-0.1-0.2-0.2-0.3-0.4c-0.1-0.2-0.1-0.3-0.1-0.6c0-0.2,0-0.4,0.1-0.6c0.1-0.2,0.2-0.4,0.4-0.5
			c0.2-0.2,0.4-0.3,0.6-0.4s0.5-0.1,0.9-0.1s0.7,0.1,1,0.2s0.5,0.3,0.7,0.6l-0.6,0.5c-0.1-0.2-0.3-0.3-0.5-0.4s-0.5-0.2-0.8-0.2
			c-0.4,0-0.7,0.1-0.9,0.3s-0.3,0.4-0.3,0.7c0,0.2,0.1,0.3,0.2,0.5c0.1,0.1,0.3,0.2,0.6,0.3l0.4,0.1c0.2,0,0.4,0.1,0.6,0.2
			c0.2,0.1,0.3,0.2,0.5,0.3s0.2,0.2,0.3,0.4s0.1,0.4,0.1,0.6c0,0.3-0.1,0.5-0.2,0.7c-0.1,0.2-0.2,0.4-0.4,0.6s-0.4,0.3-0.6,0.4
			S128,49.9,127.8,49.9z"/>
		<path d="M133,49.9c-0.3,0-0.6-0.1-0.8-0.2c-0.2-0.1-0.4-0.3-0.6-0.5s-0.3-0.4-0.4-0.7c-0.1-0.3-0.1-0.6-0.1-0.9
			c0-0.5,0.1-0.9,0.2-1.3s0.3-0.8,0.5-1.1s0.5-0.6,0.8-0.7c0.3-0.2,0.7-0.3,1.1-0.3c0.5,0,0.9,0.1,1.2,0.4c0.3,0.2,0.5,0.5,0.6,0.9
			l-0.7,0.3c-0.2-0.6-0.6-0.9-1.1-0.9c-0.4,0-0.8,0.1-1.1,0.4s-0.5,0.7-0.6,1.1l-0.2,0.9c0,0.1,0,0.2,0,0.2c0,0.1,0,0.2,0,0.2
			c0,0.4,0.1,0.7,0.3,1c0.2,0.2,0.5,0.4,0.9,0.4c0.3,0,0.5-0.1,0.7-0.2c0.2-0.2,0.4-0.4,0.7-0.8l0.6,0.3c-0.2,0.5-0.5,0.8-0.9,1.1
			C133.9,49.8,133.5,49.9,133,49.9z"/>
		<path d="M138.3,49.9c-0.3,0-0.5,0-0.8-0.1c-0.2-0.1-0.4-0.2-0.6-0.4c-0.2-0.2-0.3-0.4-0.4-0.7c-0.1-0.3-0.1-0.6-0.1-1
			c0-0.5,0.1-0.9,0.2-1.3c0.1-0.4,0.3-0.8,0.6-1.1c0.2-0.3,0.5-0.6,0.9-0.8c0.3-0.2,0.7-0.3,1.1-0.3c0.3,0,0.5,0,0.8,0.1
			c0.2,0.1,0.4,0.2,0.6,0.4c0.2,0.2,0.3,0.4,0.4,0.7c0.1,0.3,0.1,0.6,0.1,1c0,0.5-0.1,0.9-0.2,1.3s-0.3,0.8-0.6,1.1
			s-0.5,0.6-0.9,0.8C139.1,49.8,138.7,49.9,138.3,49.9z M138.4,49.2c0.4,0,0.7-0.1,1-0.4c0.3-0.3,0.5-0.7,0.6-1.3l0.2-0.8
			c0-0.2,0.1-0.3,0.1-0.5c0-0.4-0.1-0.7-0.3-0.9s-0.5-0.4-0.9-0.4s-0.7,0.1-1,0.4c-0.3,0.3-0.5,0.7-0.6,1.3l-0.2,0.8
			c0,0.2-0.1,0.3-0.1,0.5c0,0.4,0.1,0.7,0.3,0.9C137.7,49.1,138,49.2,138.4,49.2z"/>
		<path d="M143.5,49.8l-0.8-5.4h0.8l0.4,2.7l0.2,2h0.1l1-2l1.4-2.7h0.9l-3,5.4H143.5z"/>
		<path d="M150,49.9c-0.7,0-1.2-0.2-1.5-0.6c-0.4-0.4-0.5-0.9-0.5-1.7c0-0.4,0.1-0.9,0.2-1.3c0.1-0.4,0.3-0.8,0.6-1.1
			c0.2-0.3,0.5-0.6,0.9-0.8s0.7-0.3,1.2-0.3c0.2,0,0.5,0,0.7,0.1s0.4,0.1,0.6,0.3c0.2,0.1,0.3,0.3,0.4,0.5c0.1,0.2,0.1,0.4,0.1,0.6
			c0,0.6-0.3,1-0.9,1.3c-0.6,0.3-1.6,0.4-2.8,0.5c0,0.1,0,0.2,0,0.2s0,0.1,0,0.2c0,0.4,0.1,0.7,0.3,0.9s0.5,0.4,1,0.4
			c0.3,0,0.7-0.1,0.9-0.2c0.3-0.2,0.5-0.4,0.7-0.6l0.5,0.5c-0.3,0.4-0.7,0.7-1.1,0.9C150.7,49.8,150.4,49.9,150,49.9z M150.7,45
			c-0.2,0-0.4,0-0.6,0.1c-0.2,0.1-0.4,0.2-0.5,0.3s-0.3,0.3-0.4,0.5c-0.1,0.2-0.2,0.4-0.2,0.7l-0.1,0.3c0.6,0,1.1-0.1,1.4-0.1
			s0.6-0.1,0.9-0.2c0.2-0.1,0.3-0.2,0.4-0.3c0.1-0.1,0.1-0.3,0.1-0.5c0-0.1,0-0.3-0.1-0.4c-0.1-0.1-0.1-0.2-0.2-0.2
			c-0.1-0.1-0.2-0.1-0.3-0.1C150.9,45,150.8,45,150.7,45z"/>
		<path d="M153.3,49.8l1.1-5.4h0.8l-0.2,1.1h0.1c0.1-0.1,0.2-0.3,0.3-0.4c0.1-0.1,0.2-0.2,0.3-0.3s0.3-0.2,0.4-0.2s0.4-0.1,0.6-0.1
			h0.3l-0.2,0.8h-0.4c-0.3,0-0.5,0-0.7,0.1s-0.4,0.2-0.5,0.3s-0.3,0.3-0.3,0.4c-0.1,0.2-0.1,0.3-0.2,0.5l-0.7,3.2
			C154,49.8,153.3,49.8,153.3,49.8z"/>
		<path d="M161.8,44.4h0.9L159,51c-0.2,0.3-0.3,0.5-0.5,0.7s-0.4,0.2-0.7,0.2H157l0.1-0.7h1l0.7-1.2l-0.9-5.6h0.8l0.4,2.7l0.2,2h0.1
			l1-2L161.8,44.4z"/>
	</g>
</g>
</svg>
