<?xml version="1.0" encoding="UTF-8" standalone="no"?>
<svg
   xmlns:ooo="http://xml.openoffice.org/svg/export"
   xmlns:dc="http://purl.org/dc/elements/1.1/"
   xmlns:cc="http://creativecommons.org/ns#"
   xmlns:rdf="http://www.w3.org/1999/02/22-rdf-syntax-ns#"
   xmlns:svg="http://www.w3.org/2000/svg"
   xmlns="http://www.w3.org/2000/svg"
   xmlns:sodipodi="http://sodipodi.sourceforge.net/DTD/sodipodi-0.dtd"
   xmlns:inkscape="http://www.inkscape.org/namespaces/inkscape"
   version="1.2"
   width="225"
   height="120"
   viewBox="0 0 6349.9998 3386.6667"
   preserveAspectRatio="xMidYMid"
   clip-path="url(#presentation_clip_path)"
   xml:space="preserve"
   id="svg3882"
   inkscape:version="0.91 r13725"
   sodipodi:docname="acenet_logo.svg"
   style="fill-rule:evenodd;stroke-width:28.22200012;stroke-linejoin:round"
   inkscape:export-filename="/home/ostueker/Carpentry/images/mun-swc-hub-logo-blue.png"
   inkscape:export-xdpi="72"
   inkscape:export-ydpi="72"><metadata
     id="metadata4388"><rdf:RDF><cc:Work
         rdf:about=""><dc:format>image/svg+xml</dc:format><dc:type
           rdf:resource="http://purl.org/dc/dcmitype/StillImage" /><dc:title></dc:title></cc:Work></rdf:RDF></metadata><sodipodi:namedview
     pagecolor="#ffffff"
     bordercolor="#666666"
     borderopacity="1"
     objecttolerance="10"
     gridtolerance="10"
     guidetolerance="10"
     inkscape:pageopacity="0"
     inkscape:pageshadow="2"
     inkscape:window-width="1525"
     inkscape:window-height="828"
     id="namedview4386"
     showgrid="false"
     showguides="false"
     fit-margin-top="0.2"
     fit-margin-left="0.2"
     fit-margin-right="0.2"
     fit-margin-bottom="0.2"
     inkscape:zoom="2.7633333"
     inkscape:cx="150"
     inkscape:cy="60"
     inkscape:window-x="1529"
     inkscape:window-y="186"
     inkscape:window-maximized="0"
     inkscape:current-layer="svg3882"
     units="px" /><defs
     class="ClipPathGroup"
     id="defs3884"><clipPath
       id="presentation_clip_path"
       clipPathUnits="userSpaceOnUse"><rect
         x="0"
         y="0"
         width="27940"
         height="21590"
         id="rect3887" /></clipPath><pattern
       y="0"
       x="0"
       height="6"
       width="6"
       patternUnits="userSpaceOnUse"
       id="WMFhbasepattern" /><clipPath
       clipPathUnits="userSpaceOnUse"
       id="clipPath20"><path
         d="m 144.551,2397.05 107.773,-64.53 337.957,267.74 -429.312,-188.1 -16.418,-15.11 z M 537.273,2161.92 638.762,2101.16 2108.4,3265.43 1398.83,2954.54 537.273,2161.92 Z M 1726.88,768.199 l 914.16,724.221 417.3,650.99 -1375.58,-1265.5 44.12,-109.711 z m -168.92,420.031 1804.46,1429.51 600.6,936.96 -2450.24,-2254.15 45.18,-112.32 z M 4429.52,4282.45 3836.18,4022.47 199.531,676.859 c 1.16,-1.418 2.141,-2.918 3.34,-4.32 1.563,-1.84 3.301,-3.418 4.91,-5.199 l 3869.339,3065.36 352.4,549.75 z M 2623.15,3490.98 925.703,1929.37 1029.61,1867.16 3643.84,3938.18 2623.15,3490.98 Z m -772.32,-3030.96 46.86,-116.5 14.02,11.109 252.17,393.391 -313.05,-288 z"
         id="path22"
         inkscape:connector-curvature="0" /></clipPath><linearGradient
       x1="0"
       y1="0"
       x2="1"
       y2="0"
       gradientUnits="userSpaceOnUse"
       gradientTransform="matrix(-4260.07,-3638.44,-3638.45,4260.07,4437.47,4279.06)"
       spreadMethod="pad"
       id="linearGradient24"><stop
         style="stop-opacity:1;stop-color:#574a9e"
         offset="0"
         id="stop26" /><stop
         style="stop-opacity:1;stop-color:#574a9e"
         offset="0.167857"
         id="stop28" /><stop
         style="stop-opacity:1;stop-color:#1cb7bc"
         offset="0.755385"
         id="stop30" /><stop
         style="stop-opacity:1;stop-color:#ffffff"
         offset="1"
         id="stop32" /></linearGradient></defs><defs
     class="TextShapeIndex"
     id="defs3889"><g
       ooo:slide="id1"
       ooo:id-list="id3 id4 id5 id6 id7 id8 id9 id10 id11 id12 id13 id14 id15 id16 id17 id18 id19 id20 id21 id22 id23 id24 id25 id26 id27 id28 id29 id30 id31 id32 id33 id34 id35 id36 id37 id38 id39 id40 id41 id42 id43 id44 id45 id46 id47 id48 id49 id50 id51 id52 id53 id54 id55 id56 id57 id58 id59 id60 id61 id62 id63 id64 id65 id66 id67 id68 id69 id70 id71 id72 id73 id74 id75 id76 id77 id78 id79 id80 id81 id82 id83 id84 id85 id86 id87 id88 id89 id90 id91 id92"
       id="g3891" /></defs><defs
     class="EmbeddedBulletChars"
     id="defs3893"><g
       id="bullet-char-template(57356)"
       transform="scale(4.8828125e-4,-4.8828125e-4)"><path
         d="M 580,1141 1163,571 580,0 -4,571 580,1141 Z"
         id="path3896"
         inkscape:connector-curvature="0" /></g><g
       id="bullet-char-template(57354)"
       transform="scale(4.8828125e-4,-4.8828125e-4)"><path
         d="m 8,1128 1129,0 L 1137,0 8,0 8,1128 Z"
         id="path3899"
         inkscape:connector-curvature="0" /></g><g
       id="bullet-char-template(10146)"
       transform="scale(4.8828125e-4,-4.8828125e-4)"><path
         d="M 174,0 602,739 174,1481 1456,739 174,0 Z m 1184,739 -1049,607 350,-607 699,0 z"
         id="path3902"
         inkscape:connector-curvature="0" /></g><g
       id="bullet-char-template(10132)"
       transform="scale(4.8828125e-4,-4.8828125e-4)"><path
         d="M 2015,739 1276,0 717,0 l 543,543 -1086,0 0,393 1086,0 -543,545 557,0 741,-742 z"
         id="path3905"
         inkscape:connector-curvature="0" /></g><g
       id="bullet-char-template(10007)"
       transform="scale(4.8828125e-4,-4.8828125e-4)"><path
         d="m 0,-2 c -7,16 -16,29 -25,39 l 381,530 c -94,256 -141,385 -141,387 0,25 13,38 40,38 9,0 21,-2 34,-5 21,4 42,12 65,25 l 27,-13 111,-251 280,301 64,-25 24,25 c 21,-10 41,-24 62,-43 C 886,937 835,863 770,784 769,783 710,716 594,584 L 774,223 c 0,-27 -21,-55 -63,-84 l 16,-20 C 717,90 699,76 672,76 641,76 570,178 457,381 L 164,-76 c -22,-34 -53,-51 -92,-51 -42,0 -63,17 -64,51 -7,9 -10,24 -10,44 0,9 1,19 2,30 z"
         id="path3908"
         inkscape:connector-curvature="0" /></g><g
       id="bullet-char-template(10004)"
       transform="scale(4.8828125e-4,-4.8828125e-4)"><path
         d="M 285,-33 C 182,-33 111,30 74,156 52,228 41,333 41,471 c 0,78 14,145 41,201 34,71 87,106 158,106 53,0 88,-31 106,-94 l 23,-176 c 8,-64 28,-97 59,-98 l 735,706 c 11,11 33,17 66,17 42,0 63,-15 63,-46 l 0,-122 c 0,-36 -10,-64 -30,-84 L 442,47 C 390,-6 338,-33 285,-33 Z"
         id="path3911"
         inkscape:connector-curvature="0" /></g><g
       id="bullet-char-template(9679)"
       transform="scale(4.8828125e-4,-4.8828125e-4)"><path
         d="M 813,0 C 632,0 489,54 383,161 276,268 223,411 223,592 c 0,181 53,324 160,431 106,107 249,161 430,161 179,0 323,-54 432,-161 108,-107 162,-251 162,-431 0,-180 -54,-324 -162,-431 C 1136,54 992,0 813,0 Z"
         id="path3914"
         inkscape:connector-curvature="0" /></g><g
       id="bullet-char-template(8226)"
       transform="scale(4.8828125e-4,-4.8828125e-4)"><path
         d="m 346,457 c -73,0 -137,26 -191,78 -54,51 -81,114 -81,188 0,73 27,136 81,188 54,52 118,78 191,78 73,0 134,-26 185,-79 51,-51 77,-114 77,-187 0,-75 -25,-137 -76,-188 -50,-52 -112,-78 -186,-78 z"
         id="path3917"
         inkscape:connector-curvature="0" /></g><g
       id="bullet-char-template(8211)"
       transform="scale(4.8828125e-4,-4.8828125e-4)"><path
         d="m -4,459 1139,0 0,147 -1139,0 0,-147 z"
         id="path3920"
         inkscape:connector-curvature="0" /></g></defs><defs
     class="TextEmbeddedBitmaps"
     id="defs3922" /><g
     id="g3924"
     transform="translate(-562.8506,358.62479)"><g
       id="id2"
       class="Master_Slide"><g
         id="bg-id2"
         class="Background" /><g
         id="bo-id2"
         class="BackgroundObjects" /></g></g><g
     inkscape:groupmode="layer"
     id="layer1"
     inkscape:label="Layer 1"
     transform="translate(0,-613.33385)" /><g
     id="g4406"
     transform="matrix(0.60503611,0,0,0.5914102,-313.23819,283.34304)"><path
       d="m 5146.6212,1777.1712 -159.311,0 -404.0814,763.8522 138.4606,0 88.0274,-170.9192 514.4872,0 88.0274,170.9192 138.4819,0 -404.0921,-763.8522 z m -275.4252,478.9833 196.9581,-370.0844 194.5813,370.0844 -391.5394,0 z m 1232.3519,-503.2502 c -132.943,0 -244.431,34.1244 -334.4532,102.3414 -103.3919,78.0638 -155.0879,178.6651 -155.0879,301.74 0,125.2078 50.9851,226.4881 152.9763,303.8516 89.3219,67.5273 201.5208,101.291 336.5648,101.291 96.3569,0 179.1744,-14.2504 248.4631,-42.7298 69.2675,-28.4901 131.3514,-74.7321 186.2094,-138.7472 l -108.6655,-60.1315 c -77.3847,83.7088 -183.5779,125.5473 -318.6219,125.5473 -111.8381,0 -200.6401,-26.5377 -266.406,-79.6555 -65.7765,-53.0966 -98.6382,-122.9158 -98.6382,-209.4259 0,-83.6982 33.2331,-152.6155 99.6993,-206.7944 66.4662,-54.147 152.4564,-81.2364 257.9598,-81.2364 139.2671,0 247.5718,41.1487 324.9566,123.4463 l 115.0001,-41.1488 c -102.0019,-132.2321 -248.6541,-198.3481 -439.9567,-198.3481 l 0,0 z m 1493.93,674.1694 -673.1189,0 0,-225.7772 447.3418,0 0,-113.9496 -447.3418,0 0,-196.2366 643.5784,0 0,-113.9391 -770.1868,0 0,763.8522 799.7273,0 0,-113.9497 z m 1142.6162,-649.9025 -126.6084,0 0,626.7072 -583.4362,-626.7072 -157.1994,0 0,763.8522 126.5978,0 0,-626.3889 583.1497,626.3889 157.4965,0 0,-763.8522 z m 1118.3492,649.9025 -673.1189,0 0,-225.7772 447.3418,0 0,-113.9496 -447.3418,0 0,-196.2366 643.5784,0 0,-113.9391 -770.1868,0 0,763.8522 799.7273,0 0,-113.9497 z m 1109.9027,-649.9025 -856.697,0 0,113.9391 365.045,0 0,649.9131 126.608,0 0,-649.9131 365.044,0 0,-113.9391"
       style="fill:#364ca0;fill-opacity:1;fill-rule:nonzero;stroke:none"
       id="path14"
       inkscape:connector-curvature="0" /><g
       transform="matrix(1.0610826,0,0,-1.0610826,408.95103,4838.3839)"
       id="g16"><g
         id="g18"
         clip-path="url(#clipPath20)"><path
           d="m 144.551,2397.05 107.773,-64.53 337.957,267.74 -429.312,-188.1 -16.418,-15.11 z M 537.273,2161.92 638.762,2101.16 2108.4,3265.43 1398.83,2954.54 537.273,2161.92 Z M 1726.88,768.199 l 914.16,724.221 417.3,650.99 -1375.58,-1265.5 44.12,-109.711 z m -168.92,420.031 1804.46,1429.51 600.6,936.96 -2450.24,-2254.15 45.18,-112.32 z M 4429.52,4282.45 3836.18,4022.47 199.531,676.859 c 1.16,-1.418 2.141,-2.918 3.34,-4.32 1.563,-1.84 3.301,-3.418 4.91,-5.199 l 3869.339,3065.36 352.4,549.75 z M 2623.15,3490.98 925.703,1929.37 1029.61,1867.16 3643.84,3938.18 2623.15,3490.98 Z m -772.32,-3030.96 46.86,-116.5 14.02,11.109 252.17,393.391 -313.05,-288"
           style="fill:url(#linearGradient24);fill-opacity:1;fill-rule:nonzero;stroke:none"
           id="path34"
           inkscape:connector-curvature="0" /></g></g><path
       d="m 4643.5513,3061.3252 c 7.8732,-12.9134 17.6564,-23.5136 29.3602,-31.79 11.7037,-8.2659 25.0203,-14.4201 39.9603,-18.4629 14.9295,-4.0321 30.6653,-6.0587 47.2288,-6.0587 10.4835,0 22.0918,1.0186 34.8035,3.0346 12.7224,2.0267 24.5216,5.6556 35.419,10.8974 10.8973,5.2523 19.9801,12.3191 27.2486,21.1898 7.2578,8.8812 10.8973,20.3834 10.8973,34.5064 0,7.6716 -0.7109,16.1497 -2.1222,25.4235 -1.4218,9.2951 -3.1302,18.6751 -5.1462,28.1612 -2.0267,9.486 -4.1383,18.7599 -6.3559,27.8428 -2.2283,9.0828 -4.1382,17.0622 -5.7511,23.9168 -3.6289,17.3593 -6.7591,31.7794 -9.38,43.2815 -2.6314,11.5128 -4.7536,21.105 -6.3665,28.766 -1.6128,7.6716 -2.8224,13.9214 -3.6289,18.7599 -0.817,4.8492 -1.2096,9.6877 -1.2096,14.5369 0,5.6555 2.2177,9.1783 6.6636,10.5896 4.4353,1.4218 8.8707,2.1221 13.3166,2.1221 2.8225,0 5.3479,-0.095 7.5655,-0.3077 2.2177,-0.191 4.7431,-0.4987 7.5655,-0.9019 l -5.4433,29.6679 c -10.0909,2.016 -20.585,3.024 -31.4823,3.024 -21.4021,0 -32.4904,-11.0989 -33.2968,-33.2967 0,-2.8225 0.096,-5.645 0.2971,-8.4781 0.2016,-2.8225 0.5093,-5.6449 0.9125,-8.478 l -1.2096,-1.2097 c -10.8973,18.1658 -26.2406,32.1933 -46.0192,42.0826 -19.7785,9.8787 -40.5545,14.8233 -62.3492,14.8233 -14.5368,0 -27.8534,-1.6128 -39.9603,-4.8385 -12.107,-3.2363 -22.5056,-8.2659 -31.1853,-15.1311 -8.6796,-6.8652 -15.5342,-15.7464 -20.585,-26.6438 -5.0401,-10.8973 -7.5655,-24.0123 -7.5655,-39.3555 0,-16.5423 2.9392,-30.4637 8.7858,-41.7748 5.8465,-11.29 13.8153,-20.5744 23.9062,-27.8428 10.0909,-7.2685 21.593,-13.0195 34.517,-17.2532 12.9027,-4.2444 26.4209,-7.5656 40.5546,-9.9954 20.585,-3.2257 39.2494,-4.7325 56.0039,-4.5415 16.7439,0.2122 31.1852,-1.3051 43.2922,-4.5414 12.4995,-3.2257 21.8901,-9.0723 28.1505,-17.5503 6.2498,-8.4781 9.38,-23.0043 9.38,-43.5893 0,-9.2845 -2.1116,-16.85 -6.3559,-22.7072 -4.2337,-5.8465 -9.4861,-10.388 -15.7359,-13.6243 -6.271,-3.2257 -13.3272,-5.4433 -21.1898,-6.6529 -7.8732,-1.2097 -15.4387,-1.8251 -22.7072,-1.8251 -12.1069,0 -23.6091,1.2202 -34.5064,3.6395 -10.8973,2.4193 -20.7972,6.3559 -29.6678,11.7992 -8.8813,5.454 -16.2558,12.7224 -22.1024,21.7947 -5.8466,9.0828 -9.7832,20.0863 -11.7992,32.9996 l -38.1459,0 c 2.4192,-17.7519 7.5655,-33.0845 15.4387,-46.0085 z m 172.2455,96.8662 c -3.2363,3.6289 -7.7777,6.5681 -13.6243,8.7752 -5.8571,2.2283 -12.0114,3.9366 -18.4628,5.1462 -6.462,1.2097 -13.0195,2.0267 -19.6831,2.4193 -6.653,0.4138 -12.404,0.817 -17.2532,1.2203 -11.7037,0.8064 -24.7232,1.9099 -39.0478,3.3211 -14.3246,1.4219 -27.7579,4.446 -40.2575,9.0829 -12.5208,4.6475 -23.0043,11.5021 -31.4823,20.585 -8.4781,9.0829 -12.7118,21.9008 -12.7118,38.443 0,10.0909 1.91,18.6751 5.7511,25.7313 3.8305,7.0668 8.9767,12.924 15.4387,17.5609 6.4514,4.6475 13.9214,7.9687 22.3995,9.9848 8.478,2.0267 17.1471,3.0347 26.0283,3.0347 30.6759,0 55.4947,-8.2765 74.4668,-24.8293 18.9722,-16.5423 31.4823,-38.7402 37.5411,-66.5936 l 12.107,-52.6721 -1.2097,-1.2097 z m 389.8842,-78.0956 c -3.6289,-9.2845 -8.7751,-17.0516 -15.4387,-23.312 -6.653,-6.2498 -14.7385,-11.099 -24.2139,-14.5369 -9.4861,-3.4166 -19.8847,-5.1462 -31.1746,-5.1462 -23.0149,0 -42.889,5.0614 -59.6329,15.1416 -16.7545,10.0909 -30.782,23.2165 -42.0825,39.3556 -11.3005,16.1391 -19.6725,34.3048 -25.1264,54.4866 -5.4434,20.1818 -8.1704,40.3636 -8.1704,60.5347 0,13.7305 1.7084,26.5483 5.1463,38.4537 3.4273,11.9053 8.7751,22.1978 16.0435,30.8669 7.2685,8.6902 16.3407,15.4387 27.2486,20.2879 10.8974,4.8385 23.8001,7.2684 38.7402,7.2684 25.4341,0 46.921,-7.2684 64.482,-21.8053 17.5503,-14.5262 30.3575,-33.2967 38.443,-56.301 l 38.1353,0 c -11.7038,36.3315 -29.4663,63.6756 -53.277,82.0323 -23.8107,18.3779 -54.6882,27.5457 -92.6219,27.5457 -38.7507,0 -68.5247,-11.6931 -89.3007,-35.1112 -20.7972,-23.3969 -31.1852,-54.4866 -31.1852,-93.2374 0,-24.2139 3.8305,-48.4278 11.5021,-72.6417 7.6717,-24.2245 18.7706,-45.8069 33.3074,-64.7791 14.5262,-18.9721 32.2781,-34.4109 53.277,-46.3162 20.9776,-11.9054 44.7989,-17.8686 71.4321,-17.8686 16.9561,0 32.6919,2.1221 47.2287,6.3664 14.5263,4.2338 27.0364,10.8019 37.5305,19.6725 10.4941,8.8813 18.5584,19.9802 24.2245,33.2968 5.645,13.3166 8.2659,29.063 7.8627,47.2182 l -38.1353,0 c 0.7958,-11.6932 -0.6049,-22.1873 -4.2444,-31.4717 z m 362.6462,0 c -3.6289,-9.2845 -8.7751,-17.0516 -15.4387,-23.312 -6.653,-6.2498 -14.7385,-11.099 -24.2139,-14.5369 -9.4861,-3.4166 -19.8847,-5.1462 -31.1746,-5.1462 -23.0149,0 -42.8996,5.0614 -59.6435,15.1416 -16.7439,10.0909 -30.782,23.2165 -42.0719,39.3556 -11.3005,16.1391 -19.6725,34.3048 -25.1264,54.4866 -5.4434,20.1818 -8.1704,40.3636 -8.1704,60.5347 0,13.7305 1.7084,26.5483 5.1463,38.4537 3.4273,11.9053 8.7751,22.1978 16.0435,30.8669 7.2685,8.6902 16.3407,15.4387 27.238,20.2879 10.8973,4.8385 23.8107,7.2684 38.7508,7.2684 25.4235,0 46.921,-7.2684 64.482,-21.8053 17.5503,-14.5262 30.3575,-33.2967 38.443,-56.301 l 38.1353,0 c -11.7038,36.3315 -29.4663,63.6756 -53.277,82.0323 -23.8213,18.3779 -54.6882,27.5457 -92.6219,27.5457 -38.7507,0 -68.5247,-11.6931 -89.3007,-35.1112 -20.7972,-23.3969 -31.1852,-54.4866 -31.1852,-93.2374 0,-24.2139 3.8305,-48.4278 11.5021,-72.6417 7.6611,-24.2245 18.7706,-45.8069 33.3074,-64.7791 14.5262,-18.9721 32.2781,-34.4109 53.277,-46.3162 20.9776,-11.9054 44.7989,-17.8686 71.4321,-17.8686 16.9561,0 32.6919,2.1221 47.2287,6.3664 14.5263,4.2338 27.0364,10.8019 37.5305,19.6725 10.4941,8.8813 18.5584,19.9802 24.2139,33.2968 5.6556,13.3166 8.2765,29.063 7.8733,47.2182 l -38.1353,0 c 0.7958,-11.6932 -0.6049,-22.1873 -4.2444,-31.4717 z m 367.7925,55.9933 c 0.2016,-3.8305 0.3077,-7.7671 0.3077,-11.7993 0,-26.6437 -7.5761,-47.8336 -22.7072,-63.5694 -15.131,-15.7465 -36.0237,-23.6197 -62.6569,-23.6197 -15.7465,0 -30.1772,3.1408 -43.2922,9.3906 -13.1149,6.2604 -24.8187,14.5262 -35.1112,24.8187 -10.2925,10.2925 -18.8767,22.1023 -25.7312,35.4189 -6.8652,13.3166 -11.916,27.2486 -15.1417,41.7749 l 204.0356,0 c 0,-4.4354 0.095,-8.5736 0.2971,-12.4147 z m -210.9857,68.7157 c 0,14.1336 1.8145,27.2486 5.4434,39.3555 3.6395,12.107 9.1783,22.5056 16.6484,31.1747 7.47,8.6902 16.9561,15.5448 28.4582,20.585 11.5021,5.0507 24.9142,7.5761 40.2575,7.5761 25.4341,0 47.0165,-7.1623 64.7791,-21.4975 17.7625,-14.3247 30.2726,-32.9997 37.5411,-56.004 l 38.1459,0 c -10.5047,35.5251 -27.4608,62.5721 -50.8577,81.1304 -23.4181,18.5689 -53.8818,27.8428 -91.4229,27.8428 -41.5732,0 -73.1616,-11.6931 -94.744,-35.1112 -21.6037,-23.3969 -32.3949,-55.6963 -32.3949,-96.8663 0,-25.0203 3.7244,-49.3403 11.205,-72.9494 7.4594,-23.6091 18.4629,-44.7034 32.9891,-63.2723 14.5368,-18.5584 32.2887,-33.4984 53.2769,-44.7989 20.9883,-11.29 44.8096,-16.9561 71.4427,-16.9561 18.9722,0 35.7161,2.9392 50.2529,8.7857 14.5262,5.8572 26.9409,14.1336 37.2334,24.8187 10.2925,10.6957 18.0596,23.5136 23.3014,38.4431 5.2417,14.94 7.8732,31.4823 7.8732,49.648 0,8.8813 -0.2016,17.7625 -0.6048,26.6332 -0.4032,8.8919 -1.2096,17.9641 -2.4193,27.2486 l -244.5901,0 c -1.2097,7.2684 -1.8145,15.3432 -1.8145,24.2139 l 0,0 z m 440.7419,-310.5789 -93.2373,432.2745 -37.5305,0 92.6219,-432.2745 38.1459,0 z m 293.3257,241.8632 c 0.2016,-3.8305 0.2971,-7.7671 0.2971,-11.7993 0,-26.6437 -7.5655,-47.8336 -22.6966,-63.5694 -15.1416,-15.7465 -36.0237,-23.6197 -62.6675,-23.6197 -15.7359,0 -30.1666,3.1408 -43.2816,9.3906 -13.1256,6.2604 -24.8187,14.5262 -35.1112,24.8187 -10.2925,10.2925 -18.8767,22.1023 -25.7313,35.4189 -6.8758,13.3166 -11.9159,27.2486 -15.1416,41.7749 l 204.025,0 c 0,-4.4354 0.096,-8.5736 0.3077,-12.4147 z m -210.9857,68.7157 c 0,14.1336 1.8145,27.2486 5.4434,39.3555 3.6289,12.107 9.1783,22.5056 16.6483,31.1747 7.4701,8.6902 16.9561,15.5448 28.4583,20.585 11.5021,5.0507 24.9142,7.5761 40.2575,7.5761 25.4341,0 47.0165,-7.1623 64.779,-21.4975 17.7626,-14.3247 30.2727,-32.9997 37.5412,-56.004 l 38.1353,0 c -10.4941,35.5251 -27.4502,62.5721 -50.8471,81.1304 -23.4181,18.5689 -53.8818,27.8428 -91.4229,27.8428 -41.5732,0 -73.1616,-11.6931 -94.7441,-35.1112 -21.6036,-23.3969 -32.3948,-55.6963 -32.3948,-96.8663 0,-25.0203 3.7244,-49.3403 11.205,-72.9494 7.4594,-23.6091 18.4629,-44.7034 32.9891,-63.2723 14.5368,-18.5584 32.2887,-33.4984 53.2769,-44.7989 20.9882,-11.29 44.7989,-16.9561 71.4427,-16.9561 18.9616,0 35.7161,2.9392 50.2529,8.7857 14.5262,5.8572 26.9409,14.1336 37.2334,24.8187 10.2925,10.6957 18.0596,23.5136 23.3014,38.4431 5.2417,14.94 7.8732,31.4823 7.8732,49.648 0,8.8813 -0.2122,17.7625 -0.6048,26.6332 -0.4032,8.8919 -1.2097,17.9641 -2.4193,27.2486 l -244.5901,0 c -1.2097,7.2684 -1.8145,15.3432 -1.8145,24.2139 l 0,0 z m 411.074,-190.7084 -15.7358,72.0475 1.2096,0 c 12.1069,-22.601 27.0364,-40.9578 44.7989,-55.0914 17.7519,-14.123 40.5652,-21.1898 68.408,-21.1898 l 10.2925,0 c 2.0161,0 3.8305,0 5.454,0 1.6022,0 3.2257,0.2122 4.8385,0.6048 l -8.4674,38.1459 c -3.6396,0 -7.2685,-0.096 -10.908,-0.3077 -3.6289,-0.2016 -7.2578,-0.2971 -10.8973,-0.2971 -16.9455,0.4032 -31.9916,3.8305 -45.096,10.2819 -13.1256,6.462 -24.5216,15.0462 -34.2093,25.7313 -9.6877,10.7063 -17.6564,22.9193 -23.9168,36.6285 -6.2604,13.7304 -11.0034,27.8535 -14.2291,42.3797 l -35.1112,163.4704 -37.5305,0 66.5935,-312.404 34.5064,0 z m 197.0537,47.2288 c 7.8732,-12.9134 17.6564,-23.5136 29.3707,-31.79 11.6932,-8.2659 25.0204,-14.4201 39.9498,-18.4629 14.9294,-4.0321 30.6759,-6.0587 47.2288,-6.0587 10.4835,0 22.0917,1.0186 34.8141,3.0346 12.7118,2.0267 24.511,5.6556 35.4083,10.8974 10.8973,5.2523 19.9802,12.3191 27.2486,21.1898 7.2684,8.8812 10.8973,20.3834 10.8973,34.5064 0,7.6716 -0.7109,16.1497 -2.1221,25.4235 -1.4113,9.2951 -3.1302,18.6751 -5.1463,28.1612 -2.016,9.486 -4.1382,18.7599 -6.3559,27.8428 -2.2176,9.0828 -4.1382,17.0622 -5.751,23.9168 -3.6289,17.3593 -6.7591,31.7794 -9.38,43.2815 -2.6315,11.5128 -4.7536,21.105 -6.3559,28.766 -1.6234,7.6716 -2.8331,13.9214 -3.6395,18.7599 -0.8064,4.8492 -1.2096,9.6877 -1.2096,14.5369 0,5.6555 2.2176,9.1783 6.6636,10.5896 4.4353,1.4218 8.8706,2.1221 13.3166,2.1221 2.8224,0 5.3478,-0.095 7.5655,-0.3077 2.2176,-0.191 4.743,-0.4987 7.5761,-0.9019 l -5.454,29.6679 c -10.0909,2.016 -20.585,3.024 -31.4823,3.024 -21.402,0 -32.4903,-11.0989 -33.2967,-33.2967 0,-2.8225 0.095,-5.645 0.2971,-8.4781 0.2016,-2.8225 0.5093,-5.6449 0.9125,-8.478 l -1.2096,-1.2097 c -10.8974,18.1658 -26.2406,32.1933 -46.0086,42.0826 -19.7892,9.8787 -40.5652,14.8233 -62.3598,14.8233 -14.5368,0 -27.8534,-1.6128 -39.9604,-4.8385 -12.1069,-3.2363 -22.5055,-8.2659 -31.1746,-15.1311 -8.6903,-6.8652 -15.5449,-15.7464 -20.585,-26.6438 -5.0401,-10.8973 -7.5761,-24.0123 -7.5761,-39.3555 0,-16.5423 2.9392,-30.4637 8.7857,-41.7748 5.8466,-11.29 13.8153,-20.5744 23.9168,-27.8428 10.0803,-7.2685 21.5825,-13.0195 34.5064,-17.2532 12.9134,-4.2444 26.4316,-7.5656 40.5652,-9.9954 20.5744,-3.2257 39.2389,-4.7325 55.9934,-4.5415 16.7438,0.2122 31.1852,-1.3051 43.2921,-4.5414 12.4996,-3.2257 21.8902,-9.0723 28.1506,-17.5503 6.2497,-8.4781 9.3799,-23.0043 9.3799,-43.5893 0,-9.2845 -2.1115,-16.85 -6.3559,-22.7072 -4.2337,-5.8465 -9.486,-10.388 -15.7358,-13.6243 -6.2604,-3.2257 -13.3166,-5.4433 -21.1898,-6.6529 -7.8733,-1.2097 -15.4388,-1.8251 -22.7072,-1.8251 -12.107,0 -23.6091,1.2202 -34.5064,3.6395 -10.8973,2.4193 -20.7972,6.3559 -29.6679,11.7992 -8.8812,5.454 -16.2452,12.7224 -22.0917,21.7947 -5.8572,9.0828 -9.7938,20.0863 -11.8099,32.9996 l -38.1459,0 c 2.4299,-17.7519 7.5761,-33.0845 15.4388,-46.0085 z m 172.2455,96.8662 c -3.2363,3.6289 -7.7777,6.5681 -13.6243,8.7752 -5.8572,2.2283 -12.0114,3.9366 -18.4628,5.1462 -6.462,1.2097 -13.0195,2.0267 -19.6725,2.4193 -6.6636,0.4138 -12.4147,0.817 -17.2532,1.2203 -11.7144,0.8064 -24.7338,1.9099 -39.0585,3.3211 -14.3246,1.4219 -27.7473,4.446 -40.2574,9.0829 -12.5102,4.6475 -23.0043,11.5021 -31.4824,20.585 -8.478,9.0829 -12.7117,21.9008 -12.7117,38.443 0,10.0909 1.9099,18.6751 5.751,25.7313 3.8306,7.0668 8.9768,12.924 15.4388,17.5609 6.4514,4.6475 13.9214,7.9687 22.3995,9.9848 8.478,2.0267 17.147,3.0347 26.0389,3.0347 30.6653,0 55.484,-8.2765 74.4668,-24.8293 18.9615,-16.5423 31.4717,-38.7402 37.5305,-66.5936 l 12.1069,-52.6721 -1.2096,-1.2097 z m 219.7714,-144.095 19.9696,-94.4469 38.1459,0 -19.9802,94.4469 62.3599,0 -6.0588,32.0872 -63.5695,0 -42.9844,200.396 c -1.6129,7.2684 -2.7164,12.8179 -3.3212,16.6484 -0.6048,3.8411 -0.9125,8.1809 -0.9125,13.0195 0,5.6556 1.5173,10.6957 4.5414,15.131 3.0241,4.446 8.1703,6.6636 15.4387,6.6636 14.9295,0 29.8589,-1.2096 44.7989,-3.6289 l -6.6636,32.692 c -6.4513,0.8064 -12.9133,1.4112 -19.3647,1.8144 -6.462,0.3926 -12.924,0.6048 -19.3754,0.6048 -7.2684,0 -14.3352,-0.5093 -21.1898,-1.5173 -6.8652,-1.008 -13.0195,-3.1196 -18.4628,-6.3559 -5.454,-3.2257 -9.7938,-7.7671 -13.0195,-13.6243 -3.2363,-5.8359 -4.8492,-13.4121 -4.8492,-22.6965 0,-3.2257 0.3077,-7.6611 0.9126,-13.3166 0.6048,-5.6556 1.7083,-11.9054 3.3318,-18.7706 l 42.9844,-207.0596 -56.301,0 7.2578,-32.0872 56.3116,0 z m 402.8931,121.9927 c 0.2016,-3.8305 0.3077,-7.7671 0.3077,-11.7993 0,-26.6437 -7.5655,-47.8336 -22.7072,-63.5694 -15.131,-15.7465 -36.0237,-23.6197 -62.6569,-23.6197 -15.7464,0 -30.1772,3.1408 -43.2922,9.3906 -13.1149,6.2604 -24.8187,14.5262 -35.1112,24.8187 -10.2925,10.2925 -18.8766,22.1023 -25.7312,35.4189 -6.8652,13.3166 -11.9054,27.2486 -15.1311,41.7749 l 204.025,0 c 0,-4.4354 0.095,-8.5736 0.2971,-12.4147 z m -210.9857,68.7157 c 0,14.1336 1.8145,27.2486 5.454,39.3555 3.6289,12.107 9.1678,22.5056 16.6484,31.1747 7.4594,8.6902 16.9455,15.5448 28.4476,20.585 11.5021,5.0507 24.9248,7.5761 40.2681,7.5761 25.4235,0 47.006,-7.1623 64.7791,-21.4975 17.7519,-14.3247 30.2621,-32.9997 37.5305,-56.004 l 38.1459,0 c -10.5047,35.5251 -27.4502,62.5721 -50.8577,81.1304 -23.4181,18.5689 -53.8818,27.8428 -91.4229,27.8428 -41.5732,0 -73.1616,-11.6931 -94.744,-35.1112 -21.5931,-23.3969 -32.3949,-55.6963 -32.3949,-96.8663 0,-25.0203 3.735,-49.3403 11.205,-72.9494 7.4595,-23.6091 18.4629,-44.7034 32.9997,-63.2723 14.5262,-18.5584 32.2781,-33.4984 53.277,-44.7989 20.9776,-11.29 44.7989,-16.9561 71.4321,-16.9561 18.9721,0 35.7266,2.9392 50.2528,8.7857 14.5262,5.8572 26.9409,14.1336 37.2334,24.8187 10.2925,10.6957 18.0596,23.5136 23.312,38.4431 5.2417,14.94 7.8626,31.4823 7.8626,49.648 0,8.8813 -0.2016,17.7625 -0.6048,26.6332 -0.4032,8.8919 -1.2096,17.9641 -2.4193,27.2486 l -244.5901,0 c -1.2096,7.2684 -1.8145,15.3432 -1.8145,24.2139 l 0,0 z m 761.0085,121.6956 13.932,-56.3117 -1.2096,0 c -13.3272,20.585 -28.766,36.5331 -46.3163,47.8336 -17.5609,11.2899 -40.0665,16.9455 -67.5061,16.9455 -39.9603,0 -69.7237,-11.5976 -89.3007,-34.8035 -19.577,-23.2059 -29.3601,-53.9773 -29.3601,-92.3248 0,-23.8107 3.9366,-47.8336 11.7992,-72.0475 7.8732,-24.2245 19.2693,-46.0192 34.2093,-65.3839 14.9294,-19.3754 32.8936,-35.1219 53.8818,-47.2288 20.9776,-12.107 44.5973,-18.1657 70.8378,-18.1657 24.6066,0 46.0086,5.1462 64.1743,15.4387 18.1551,10.2925 30.6653,27.7579 37.5305,52.375 l 1.2096,0 37.5412,-178.6014 38.1459,0 -92.6325,432.2745 -36.9363,0 z m -39.345,-39.6633 c 16.9455,-11.0883 31.1746,-25.2113 42.6768,-42.3796 11.5021,-17.1471 20.2879,-36.1087 26.336,-56.9059 6.0588,-20.7866 9.0829,-40.8623 9.0829,-60.2377 0,-27.8534 -7.5655,-49.839 -22.7072,-65.9887 -15.131,-16.1391 -36.6285,-24.2245 -64.4713,-24.2245 -21.7947,0 -41.0745,5.454 -57.8184,16.3513 -16.7545,10.8973 -30.6759,24.8187 -41.7748,41.7748 -11.1096,16.9561 -19.4815,35.6205 -25.1265,56.0039 -5.6556,20.3834 -8.478,40.0559 -8.478,59.0281 0,26.6331 6.8652,48.8416 20.585,66.5935 13.7198,17.7625 34.9096,26.6438 63.5694,26.6438 21.7947,0 41.17,-5.5495 58.1261,-16.659 z m 331.7581,-392.6112 -13.3166,61.1502 -38.1459,0 13.3272,-61.1502 38.1353,0 z m -26.0283,119.8705 -67.209,312.404 -37.5305,0 66.5935,-312.404 38.146,0 z m 106.851,248.8345 c 5.0401,10.0909 11.7037,18.1551 19.9802,24.2139 8.2658,6.0588 17.7519,10.2925 28.4582,12.7118 10.6851,2.4192 21.4869,3.6395 32.3842,3.6395 8.4781,0 17.3487,-1.1142 26.6438,-3.3318 9.2739,-2.2177 17.7519,-5.6556 25.4236,-10.2925 7.661,-4.6369 14.0169,-10.6002 19.0676,-17.858 5.0508,-7.2684 7.5761,-15.9481 7.5761,-26.039 0,-10.4941 -2.5253,-19.1632 -7.5761,-26.0284 -5.0507,-6.8652 -11.5021,-12.8072 -19.3647,-17.8686 -7.8733,-5.0401 -16.8606,-9.4755 -26.9409,-13.3166 -10.1015,-3.8305 -20.1924,-7.7671 -30.2727,-11.7992 -10.0909,-4.0321 -20.1924,-8.372 -30.2727,-13.0195 -10.0909,-4.6369 -19.0677,-10.2925 -26.9409,-16.9561 -7.8732,-6.653 -14.2291,-14.5262 -19.0676,-23.6091 -4.8492,-9.0829 -7.2685,-20.0757 -7.2685,-32.989 0,-15.3433 3.6289,-28.3522 10.8974,-39.0585 7.2684,-10.6851 16.5422,-19.4602 27.8534,-26.3361 11.2899,-6.8546 23.8107,-11.8947 37.5305,-15.131 13.7198,-3.2257 26.8347,-4.8491 39.3555,-4.8491 16.5423,0 31.6733,1.825 45.4037,5.4539 13.7198,3.6289 25.5191,9.4861 35.419,17.5609 9.8893,8.0749 17.5609,18.4629 23.0043,31.1746 5.4539,12.7118 7.9687,28.1506 7.5655,46.3163 l -38.1353,0 c 0.7958,-12.107 -0.6049,-22.3995 -4.2444,-30.8775 -3.6289,-8.4781 -8.7751,-15.5343 -15.4387,-21.1898 -6.653,-5.645 -14.6323,-9.7832 -23.9062,-12.4147 -9.2951,-2.6209 -19.1738,-3.9366 -29.6679,-3.9366 -8.478,0 -17.2532,0.817 -26.336,2.4299 -9.0829,1.6128 -17.3594,4.3398 -24.8188,8.1703 -7.4806,3.8411 -13.7304,9.189 -18.7705,16.0436 -5.0508,6.8652 -7.5655,15.7358 -7.5655,26.6438 0,7.2578 1.8144,13.7198 5.4433,19.3647 3.6289,5.6556 8.4781,10.7063 14.5262,15.1417 6.0588,4.4459 13.0195,8.478 20.8928,12.1069 7.8732,3.6289 16.2451,7.2684 25.1264,10.8973 10.8973,4.446 22.2933,8.9874 34.1987,13.6243 11.9053,4.637 22.8026,10.388 32.6919,17.2532 9.8893,6.8652 18.1658,15.1311 24.8294,24.8188 6.653,9.6876 9.9848,21.7946 9.9848,36.3314 0,17.7626 -3.7351,32.692 -11.1945,44.7989 -7.4806,12.107 -17.2532,21.9008 -29.3707,29.3602 -12.107,7.47 -25.6358,12.8073 -40.5546,16.0436 -14.9401,3.2257 -29.8801,4.8385 -44.8095,4.8385 -15.3433,0 -30.1666,-2.0161 -44.4912,-6.0482 -14.3352,-4.0321 -26.9409,-10.4941 -37.8382,-19.3753 -10.8973,-8.8707 -19.5876,-20.2773 -26.039,-34.2093 -6.462,-13.9214 -9.2739,-30.7714 -8.478,-50.55 l 37.5411,0 c 0,15.3432 2.5147,28.055 7.5655,38.1459 z m 546.9881,-182.8351 c -3.6289,-9.2845 -8.7752,-17.0516 -15.4388,-23.312 -6.653,-6.2498 -14.7384,-11.099 -24.2139,-14.5369 -9.4861,-3.4166 -19.8847,-5.1462 -31.1746,-5.1462 -23.0043,0 -42.889,5.0614 -59.6328,15.1416 -16.7545,10.0909 -30.7821,23.2165 -42.0826,39.3556 -11.3005,16.1391 -19.6725,34.3048 -25.1264,54.4866 -5.4434,20.1818 -8.1704,40.3636 -8.1704,60.5347 0,13.7305 1.7084,26.5483 5.1463,38.4537 3.4273,11.9053 8.7751,22.1978 16.0436,30.8669 7.2684,8.6902 16.3512,15.4387 27.2486,20.2879 10.8973,4.8385 23.8107,7.2684 38.7401,7.2684 25.4341,0 46.9211,-7.2684 64.482,-21.8053 17.5503,-14.5262 30.3682,-33.2967 38.443,-56.301 l 38.1353,0 c -11.7037,36.3315 -29.4663,63.6756 -53.2769,82.0323 -23.8107,18.3779 -54.6882,27.5457 -92.6219,27.5457 -38.7508,0 -68.5141,-11.6931 -89.3008,-35.1112 -20.7972,-23.3969 -31.1852,-54.4866 -31.1852,-93.2374 0,-24.2139 3.8411,-48.4278 11.5128,-72.6417 7.661,-24.2245 18.7599,-45.8069 33.2967,-64.7791 14.5263,-18.9721 32.2782,-34.4109 53.277,-46.3162 20.9776,-11.9054 44.7989,-17.8686 71.4321,-17.8686 16.9561,0 32.6919,2.1221 47.2288,6.3664 14.5262,4.2338 27.0364,10.8019 37.5305,19.6725 10.4941,8.8813 18.5689,19.9802 24.2245,33.2968 5.6449,13.3166 8.2658,29.063 7.8626,47.2182 l -38.1353,0 c 0.8064,-11.6932 -0.6048,-22.1873 -4.2443,-31.4717 z m 306.048,207.3567 c 15.9375,-10.6957 29.2541,-24.32 39.9498,-40.8729 10.6957,-16.5423 18.7705,-34.708 24.2139,-54.4866 5.4539,-19.7679 8.1809,-38.7507 8.1809,-56.9058 0,-29.0631 -7.6716,-52.6722 -23.0042,-70.8379 -15.3433,-18.1657 -38.3582,-27.2486 -69.0235,-27.2486 -20.9882,0 -39.5571,5.1462 -55.6962,15.4387 -16.1497,10.2925 -29.6679,23.4181 -40.5652,39.3556 -10.8973,15.9481 -19.1737,33.7106 -24.8187,53.277 -5.6556,19.5875 -8.4781,38.443 -8.4781,56.6087 0,30.2727 7.6611,54.7943 23.0043,73.5543 15.3327,18.7705 38.9417,28.1611 70.8379,28.1611 20.9776,0 39.4404,-5.3479 55.3991,-16.0436 z m 36.9257,-274.258 c 15.131,5.4434 28.1505,13.4227 39.0478,23.9062 10.8973,10.5047 19.3754,23.312 25.4342,38.4536 6.0481,15.1311 9.0722,32.3843 9.0722,51.7596 0,26.2406 -3.6289,51.8657 -10.8973,76.8861 -7.2578,25.0309 -18.0596,47.2288 -32.3842,66.5935 -14.3353,19.3754 -32.2994,34.9202 -53.8818,46.624 -21.6036,11.7037 -46.9211,17.5503 -75.9841,17.5503 -40.3636,0 -71.2411,-11.6931 -92.6325,-35.1112 -21.3915,-23.3969 -32.0872,-54.8792 -32.0872,-94.447 0,-25.4235 3.8305,-50.2423 11.5022,-74.4668 7.6716,-24.2139 18.9721,-45.6053 33.9122,-64.1742 14.9188,-18.5584 33.1906,-33.4984 54.7837,-44.7989 21.593,-11.29 46.3162,-16.9561 74.1696,-16.9561 18.1552,0 34.8141,2.7269 49.9452,8.1809 z m 213.4049,0.9019 36.9363,269.4195 1.2096,0 146.5143,-269.4195 41.7748,0 -176.1821,312.404 -41.17,0 -49.0326,-312.404 39.9497,0 z m 525.2041,121.9927 c 0.202,-3.8305 0.308,-7.7671 0.308,-11.7993 0,-26.6437 -7.576,-47.8336 -22.707,-63.5694 -15.132,-15.7465 -36.024,-23.6197 -62.657,-23.6197 -15.747,0 -30.178,3.1408 -43.293,9.3906 -13.115,6.2604 -24.818,14.5262 -35.111,24.8187 -10.292,10.2925 -18.876,22.1023 -25.731,35.4189 -6.865,13.3166 -11.905,27.2486 -15.1311,41.7749 l 204.0251,0 c 0,-4.4354 0.09,-8.5736 0.297,-12.4147 z m -210.9857,68.7157 c 0,14.1336 1.8145,27.2486 5.4434,39.3555 3.6393,12.107 9.1783,22.5056 16.6483,31.1747 7.47,8.6902 16.956,15.5448 28.458,20.585 11.502,5.0507 24.915,7.5761 40.258,7.5761 25.434,0 47.016,-7.1623 64.779,-21.4975 17.762,-14.3247 30.273,-32.9997 37.541,-56.004 l 38.146,0 c -10.505,35.5251 -27.461,62.5721 -50.858,81.1304 -23.418,18.5689 -53.882,27.8428 -91.423,27.8428 -41.573,0 -73.161,-11.6931 -94.7438,-35.1112 -21.6036,-23.3969 -32.3948,-55.6963 -32.3948,-96.8663 0,-25.0203 3.735,-49.3403 11.205,-72.9494 7.4594,-23.6091 18.4629,-44.7034 32.9891,-63.2723 14.5365,-18.5584 32.2885,-33.4984 53.2765,-44.7989 20.989,-11.29 44.81,-16.9561 71.443,-16.9561 18.972,0 35.727,2.9392 50.253,8.7857 14.526,5.8572 26.941,14.1336 37.233,24.8187 10.293,10.6957 18.06,23.5136 23.312,38.4431 5.232,14.94 7.863,31.4823 7.863,49.648 0,8.8813 -0.202,17.7625 -0.605,26.6332 -0.403,8.8919 -1.209,17.9641 -2.419,27.2486 l -244.5902,0 c -1.2097,7.2684 -1.8145,15.3432 -1.8145,24.2139 l 0,0 z m 411.0737,-190.7084 -15.736,72.0475 1.21,0 c 12.107,-22.601 27.036,-40.9578 44.799,-55.0914 17.763,-14.123 40.565,-21.1898 68.419,-21.1898 l 10.292,0 c 2.006,0 3.831,0 5.443,0 1.613,0 3.226,0.2122 4.85,0.6048 l -8.478,38.1459 c -3.64,0 -7.269,-0.096 -10.898,-0.3077 -3.639,-0.2016 -7.268,-0.2971 -10.897,-0.2971 -16.956,0.4032 -31.992,3.8305 -45.107,10.2819 -13.125,6.462 -24.521,15.0462 -34.209,25.7313 -9.688,10.7063 -17.656,22.9193 -23.906,36.6285 -6.271,13.7304 -11.004,27.8535 -14.229,42.3797 l -35.122,163.4704 -37.531,0 66.594,-312.404 34.506,0 z m 150.748,395.3382 c 11.704,0 21.583,-3.6289 29.668,-10.8973 8.064,-7.2578 14.526,-14.9295 19.365,-23.0043 l 28.458,-49.0326 -57.51,-312.404 39.949,0 44.81,265.1752 1.209,0 144.085,-265.1752 41.17,0 -222.191,385.6611 c -16.15,27.8428 -41.371,41.7642 -75.676,41.7642 -5.242,0 -10.59,-0.4032 -16.044,-1.2096 -5.443,-0.8064 -10.993,-1.4113 -16.648,-1.8145 l 7.268,-30.8775 c 10.898,1.2097 21.593,1.8145 32.087,1.8145 l 0,0"
       style="fill:#000000;fill-opacity:1;fill-rule:nonzero;stroke:none"
       id="path36"
       inkscape:connector-curvature="0" /></g></svg>