<?xml version="1.0" encoding="UTF-8" standalone="no"?>
<svg
   xmlns:ooo="http://xml.openoffice.org/svg/export"
   xmlns:dc="http://purl.org/dc/elements/1.1/"
   xmlns:cc="http://creativecommons.org/ns#"
   xmlns:rdf="http://www.w3.org/1999/02/22-rdf-syntax-ns#"
   xmlns:svg="http://www.w3.org/2000/svg"
   xmlns="http://www.w3.org/2000/svg"
   xmlns:sodipodi="http://sodipodi.sourceforge.net/DTD/sodipodi-0.dtd"
   xmlns:inkscape="http://www.inkscape.org/namespaces/inkscape"
   version="1.2"
   width="225"
   height="120"
   viewBox="0 0 6350 3386.6669"
   preserveAspectRatio="xMidYMid"
   clip-path="url(#presentation_clip_path)"
   xml:space="preserve"
   id="svg3882"
   inkscape:version="0.91 r13725"
   sodipodi:docname="mun_logo.svg"
   style="fill-rule:evenodd;stroke-width:28.22200012;stroke-linejoin:round"
   inkscape:export-filename="/home/ostueker/Carpentry/images/mun-swc-hub-logo-blue.png"
   inkscape:export-xdpi="72"
   inkscape:export-ydpi="72"><metadata
     id="metadata4388"><rdf:RDF><cc:Work
         rdf:about=""><dc:format>image/svg+xml</dc:format><dc:type
           rdf:resource="http://purl.org/dc/dcmitype/StillImage" /><dc:title></dc:title></cc:Work></rdf:RDF></metadata><sodipodi:namedview
     pagecolor="#ffffff"
     bordercolor="#666666"
     borderopacity="1"
     objecttolerance="10"
     gridtolerance="10"
     guidetolerance="10"
     inkscape:pageopacity="0"
     inkscape:pageshadow="2"
     inkscape:window-width="1751"
     inkscape:window-height="913"
     id="namedview4386"
     showgrid="false"
     showguides="false"
     fit-margin-top="0.2"
     fit-margin-left="0.2"
     fit-margin-right="0.2"
     fit-margin-bottom="0.2"
     inkscape:zoom="2.8307841"
     inkscape:cx="183.44726"
     inkscape:cy="46.706014"
     inkscape:window-x="1529"
     inkscape:window-y="101"
     inkscape:window-maximized="0"
     inkscape:current-layer="layer1"
     units="px" /><defs
     class="ClipPathGroup"
     id="defs3884"><clipPath
       id="presentation_clip_path"
       clipPathUnits="userSpaceOnUse"><rect
         x="0"
         y="0"
         width="27940"
         height="21590"
         id="rect3887" /></clipPath><pattern
       y="0"
       x="0"
       height="6"
       width="6"
       patternUnits="userSpaceOnUse"
       id="WMFhbasepattern" /><clipPath
       clipPathUnits="userSpaceOnUse"
       id="clipPath20"><path
         d="m 144.551,2397.05 107.773,-64.53 337.957,267.74 -429.312,-188.1 -16.418,-15.11 z M 537.273,2161.92 638.762,2101.16 2108.4,3265.43 1398.83,2954.54 537.273,2161.92 Z M 1726.88,768.199 l 914.16,724.221 417.3,650.99 -1375.58,-1265.5 44.12,-109.711 z m -168.92,420.031 1804.46,1429.51 600.6,936.96 -2450.24,-2254.15 45.18,-112.32 z M 4429.52,4282.45 3836.18,4022.47 199.531,676.859 c 1.16,-1.418 2.141,-2.918 3.34,-4.32 1.563,-1.84 3.301,-3.418 4.91,-5.199 l 3869.339,3065.36 352.4,549.75 z M 2623.15,3490.98 925.703,1929.37 1029.61,1867.16 3643.84,3938.18 2623.15,3490.98 Z m -772.32,-3030.96 46.86,-116.5 14.02,11.109 252.17,393.391 -313.05,-288 z"
         id="path22"
         inkscape:connector-curvature="0" /></clipPath><linearGradient
       x1="0"
       y1="0"
       x2="1"
       y2="0"
       gradientUnits="userSpaceOnUse"
       gradientTransform="matrix(-4260.07,-3638.44,-3638.45,4260.07,4437.47,4279.06)"
       spreadMethod="pad"
       id="linearGradient24"><stop
         style="stop-opacity:1;stop-color:#574a9e"
         offset="0"
         id="stop26" /><stop
         style="stop-opacity:1;stop-color:#574a9e"
         offset="0.167857"
         id="stop28" /><stop
         style="stop-opacity:1;stop-color:#1cb7bc"
         offset="0.755385"
         id="stop30" /><stop
         style="stop-opacity:1;stop-color:#ffffff"
         offset="1"
         id="stop32" /></linearGradient></defs><defs
     class="TextShapeIndex"
     id="defs3889"><g
       ooo:slide="id1"
       ooo:id-list="id3 id4 id5 id6 id7 id8 id9 id10 id11 id12 id13 id14 id15 id16 id17 id18 id19 id20 id21 id22 id23 id24 id25 id26 id27 id28 id29 id30 id31 id32 id33 id34 id35 id36 id37 id38 id39 id40 id41 id42 id43 id44 id45 id46 id47 id48 id49 id50 id51 id52 id53 id54 id55 id56 id57 id58 id59 id60 id61 id62 id63 id64 id65 id66 id67 id68 id69 id70 id71 id72 id73 id74 id75 id76 id77 id78 id79 id80 id81 id82 id83 id84 id85 id86 id87 id88 id89 id90 id91 id92"
       id="g3891" /></defs><defs
     class="EmbeddedBulletChars"
     id="defs3893"><g
       id="bullet-char-template(57356)"
       transform="scale(4.8828125e-4,-4.8828125e-4)"><path
         d="M 580,1141 1163,571 580,0 -4,571 580,1141 Z"
         id="path3896"
         inkscape:connector-curvature="0" /></g><g
       id="bullet-char-template(57354)"
       transform="scale(4.8828125e-4,-4.8828125e-4)"><path
         d="m 8,1128 1129,0 L 1137,0 8,0 8,1128 Z"
         id="path3899"
         inkscape:connector-curvature="0" /></g><g
       id="bullet-char-template(10146)"
       transform="scale(4.8828125e-4,-4.8828125e-4)"><path
         d="M 174,0 602,739 174,1481 1456,739 174,0 Z m 1184,739 -1049,607 350,-607 699,0 z"
         id="path3902"
         inkscape:connector-curvature="0" /></g><g
       id="bullet-char-template(10132)"
       transform="scale(4.8828125e-4,-4.8828125e-4)"><path
         d="M 2015,739 1276,0 717,0 l 543,543 -1086,0 0,393 1086,0 -543,545 557,0 741,-742 z"
         id="path3905"
         inkscape:connector-curvature="0" /></g><g
       id="bullet-char-template(10007)"
       transform="scale(4.8828125e-4,-4.8828125e-4)"><path
         d="m 0,-2 c -7,16 -16,29 -25,39 l 381,530 c -94,256 -141,385 -141,387 0,25 13,38 40,38 9,0 21,-2 34,-5 21,4 42,12 65,25 l 27,-13 111,-251 280,301 64,-25 24,25 c 21,-10 41,-24 62,-43 C 886,937 835,863 770,784 769,783 710,716 594,584 L 774,223 c 0,-27 -21,-55 -63,-84 l 16,-20 C 717,90 699,76 672,76 641,76 570,178 457,381 L 164,-76 c -22,-34 -53,-51 -92,-51 -42,0 -63,17 -64,51 -7,9 -10,24 -10,44 0,9 1,19 2,30 z"
         id="path3908"
         inkscape:connector-curvature="0" /></g><g
       id="bullet-char-template(10004)"
       transform="scale(4.8828125e-4,-4.8828125e-4)"><path
         d="M 285,-33 C 182,-33 111,30 74,156 52,228 41,333 41,471 c 0,78 14,145 41,201 34,71 87,106 158,106 53,0 88,-31 106,-94 l 23,-176 c 8,-64 28,-97 59,-98 l 735,706 c 11,11 33,17 66,17 42,0 63,-15 63,-46 l 0,-122 c 0,-36 -10,-64 -30,-84 L 442,47 C 390,-6 338,-33 285,-33 Z"
         id="path3911"
         inkscape:connector-curvature="0" /></g><g
       id="bullet-char-template(9679)"
       transform="scale(4.8828125e-4,-4.8828125e-4)"><path
         d="M 813,0 C 632,0 489,54 383,161 276,268 223,411 223,592 c 0,181 53,324 160,431 106,107 249,161 430,161 179,0 323,-54 432,-161 108,-107 162,-251 162,-431 0,-180 -54,-324 -162,-431 C 1136,54 992,0 813,0 Z"
         id="path3914"
         inkscape:connector-curvature="0" /></g><g
       id="bullet-char-template(8226)"
       transform="scale(4.8828125e-4,-4.8828125e-4)"><path
         d="m 346,457 c -73,0 -137,26 -191,78 -54,51 -81,114 -81,188 0,73 27,136 81,188 54,52 118,78 191,78 73,0 134,-26 185,-79 51,-51 77,-114 77,-187 0,-75 -25,-137 -76,-188 -50,-52 -112,-78 -186,-78 z"
         id="path3917"
         inkscape:connector-curvature="0" /></g><g
       id="bullet-char-template(8211)"
       transform="scale(4.8828125e-4,-4.8828125e-4)"><path
         d="m -4,459 1139,0 0,147 -1139,0 0,-147 z"
         id="path3920"
         inkscape:connector-curvature="0" /></g></defs><defs
     class="TextEmbeddedBitmaps"
     id="defs3922" /><g
     id="g3924"
     transform="translate(-562.8506,358.62505)"><g
       id="id2"
       class="Master_Slide"><g
         id="bg-id2"
         class="Background" /><g
         id="bo-id2"
         class="BackgroundObjects" /></g></g><g
     inkscape:groupmode="layer"
     id="layer1"
     inkscape:label="Layer 1"
     transform="translate(0,-613.33343)"><g
       id="g3534"
       transform="matrix(76.367594,0,0,78.528306,457.34229,644.48415)"
       inkscape:export-xdpi="72"
       inkscape:export-ydpi="72"><path
         inkscape:connector-curvature="0"
         id="path3477"
         d="m 5.0270833,35.89528 0,3.79222 0,0 0.088195,0.61722 0.088194,0.352778 0.088195,0.264724 0.2645833,0.264725 0.2645833,0.176107 0.3527778,0.08834 0.3527778,0.08834 0,0 0.4409722,-0.08834 0.3527778,-0.08834 0.2645833,-0.176107 0.1763889,-0.264725 0.1763889,-0.264724 0.088194,-0.352778 0.088194,-0.61722 0,-3.79222 0.8819444,0 0,3.968609 0,0 L 8.907639,40.393056 8.819444,40.834169 8.5548611,41.275 8.2902778,41.627778 7.9375,41.892502 l -0.4409722,0.264443 -0.4409722,0.08834 -0.5291667,0.08805 0,0 L 6.0854167,42.24528 5.6444444,42.156945 5.2034722,41.892502 4.8506944,41.627778 4.5861111,41.275 4.3215278,40.834169 l -0.088195,-0.441113 -0.088194,-0.529167 0,-3.968609 0.8819444,0 0,0 z"
         style="fill:#545861;fill-opacity:1;fill-rule:nonzero;stroke:none" /><path
         inkscape:connector-curvature="0"
         id="path3479"
         d="m 12.259028,35.89528 1.146528,0 3.439583,5.114996 0,0 0,-5.114996 0.79375,0 0,6.261665 -1.058333,0 -3.439584,-5.115278 0,0 0,5.115278 -0.881944,0 0,-6.261665 0,0 z"
         style="fill:#545861;fill-opacity:1;fill-rule:nonzero;stroke:none" /><path
         inkscape:connector-curvature="0"
         id="path3481"
         d="m 21.078472,35.89528 0.881945,0 0,6.261665 -0.881945,0 0,-6.261665 0,0 z"
         style="fill:#545861;fill-opacity:1;fill-rule:nonzero;stroke:none" /><path
         inkscape:connector-curvature="0"
         id="path3483"
         d="m 24.429861,35.89528 0.970139,0 1.852083,5.114996 0,0 1.940419,-5.114996 0.969998,0 -2.469444,6.261665 -0.79375,0 -2.469445,-6.261665 0,0 z"
         style="fill:#545861;fill-opacity:1;fill-rule:nonzero;stroke:none" /><path
         inkscape:connector-curvature="0"
         id="path3485"
         d="m 32.631944,35.89528 4.056945,0 0,0.793609 -3.175,0 0,1.851942 2.998611,0 0,0.793891 -2.998611,0 0,2.028332 3.351389,0 0,0.793891 -4.233334,0 0,-6.261665 0,0 z"
         style="fill:#545861;fill-opacity:1;fill-rule:nonzero;stroke:none" /><path
         inkscape:connector-curvature="0"
         id="path3487"
         d="m 39.863889,35.89528 2.20472,0 0,0 0.529449,0.08805 0.440831,0.08805 0.352778,0.176671 0.264724,0.264442 0.176107,0.264442 0.08834,0.264725 0.08834,0.617502 0,0 0,0.264442 -0.08834,0.264443 -0.08834,0.264724 -0.176107,0.264724 -0.264724,0.176107 -0.264725,0.176671 -0.264442,0.176107 -0.352778,0.08834 1.763889,2.822223 -1.058333,0 -1.5875,-2.733887 -0.97028,0 0,2.733887 -0.793609,0 0,-6.261665 0,0 z m 0.793609,2.733887 1.146669,0 0,0 0.529166,0 0.352778,-0.176389 0.176389,-0.08805 0.176389,-0.176671 0.08805,-0.264443 0,-0.264442 0,0 0,-0.264724 -0.08805,-0.264725 -0.176389,-0.176106 -0.176389,-0.08834 -0.352778,-0.176389 -0.529166,-0.08805 -1.146669,0 0,2.028331 0,0 z"
         style="fill:#545861;fill-opacity:1;fill-rule:nonzero;stroke:none" /><path
         inkscape:connector-curvature="0"
         id="path3489"
         d="m 47.184169,40.834169 0,0 0.264442,0.264442 0.352778,0.264443 0.352778,0.08834 0.352777,0.08834 0,0 0.441114,-0.08834 0.440831,-0.176389 0.264724,-0.352778 0.08805,-0.176388 0,-0.264443 0,0 0,-0.264724 -0.08805,-0.176389 -0.176671,-0.176389 -0.176106,-0.08805 -0.529449,-0.264725 -0.528885,-0.176389 -0.617502,-0.176388 -0.440831,-0.352778 -0.176671,-0.264725 -0.176107,-0.264442 -0.08834,-0.352778 -0.08834,-0.441113 0,0 0.08834,-0.264442 0.08834,-0.352778 0.176107,-0.264442 0.176671,-0.264725 0.264442,-0.264724 0.441113,-0.176107 0.440832,-0.08834 0.440831,-0.08834 0,0 0.529449,0.08834 0.528884,0.08834 0.352778,0.176107 0.441113,0.352778 -0.705555,0.617502 0,0 -0.176389,-0.176389 -0.264725,-0.176389 -0.352778,-0.08805 -0.352777,-0.08834 0,0 -0.264443,0.08834 -0.264442,0 -0.352778,0.264442 -0.264724,0.352778 0,0.264442 0,0 0,0.264724 0.08805,0.264725 0.176671,0.176107 0.176107,0.08834 0.529449,0.264442 0.528884,0.176671 0.529449,0.176107 0.528885,0.264725 0.176671,0.264724 0.176107,0.264442 0.08833,0.264442 0.08834,0.441114 0,0 -0.08834,0.441113 -0.08833,0.352778 -0.264443,0.352778 -0.264442,0.264442 -0.264724,0.176389 -0.352778,0.176389 -0.440831,0.08834 -0.441114,0.08805 0,0 -0.61722,-0.08805 -0.529448,-0.176671 -0.440832,-0.264442 -0.440831,-0.352778 0.705556,-0.61722 0,0 z"
         style="fill:#545861;fill-opacity:1;fill-rule:nonzero;stroke:none" /><path
         inkscape:connector-curvature="0"
         id="path3491"
         d="m 53.710276,35.89528 0.882226,0 0,6.261665 -0.882226,0 0,-6.261665 0,0 z"
         style="fill:#545861;fill-opacity:1;fill-rule:nonzero;stroke:none" /><path
         inkscape:connector-curvature="0"
         id="path3493"
         d="m 59.266667,36.688889 -2.028614,0 0,-0.793609 4.850836,0 0,0.793609 -1.940278,0 0,5.468056 -0.881944,0 0,-5.468056 0,0 z"
         style="fill:#545861;fill-opacity:1;fill-rule:nonzero;stroke:none" /><path
         inkscape:connector-curvature="0"
         id="path3495"
         d="m 66.322222,39.511111 -2.381391,-3.615831 1.058333,0 1.675836,2.733887 1.763889,-2.733887 1.058333,0 -2.381391,3.615831 0,2.645834 -0.793609,0 0,-2.645834 0,0 z"
         style="fill:#545861;fill-opacity:1;fill-rule:nonzero;stroke:none" /><path
         inkscape:connector-curvature="0"
         id="path3497"
         d="m 7.3201389,32.984722 -1.6756945,-5.203472 0,0 0,5.203472 1.6756945,0 0,0 z"
         style="fill:#840c2c;fill-opacity:1;fill-rule:nonzero;stroke:none" /><path
         inkscape:connector-curvature="0"
         id="path3499"
         d="m 10.31875,32.984722 0,-5.203472 -0.08819,0 -1.7638893,5.203472 1.8520833,0 0,0 z"
         style="fill:#840c2c;fill-opacity:1;fill-rule:nonzero;stroke:none" /><path
         inkscape:connector-curvature="0"
         id="path3501"
         d="m 26.19375,32.984722 -1.763889,-5.203472 0,0 0,5.203472 1.763889,0 0,0 z"
         style="fill:#840c2c;fill-opacity:1;fill-rule:nonzero;stroke:none" /><path
         inkscape:connector-curvature="0"
         id="path3503"
         d="m 29.104167,32.984722 0,-5.203472 0,0 -1.763889,5.203472 1.763889,0 0,0 z"
         style="fill:#840c2c;fill-opacity:1;fill-rule:nonzero;stroke:none" /><path
         inkscape:connector-curvature="0"
         id="path3505"
         d="m 47.272222,32.984722 -1.411111,-2.733886 -0.705555,0 0,2.733886 2.116666,0 0,0 z m -2.116666,-3.968891 0.881944,0 0,0 0.441113,0 0.352778,-0.08805 0.176107,-0.08805 0.176671,-0.176671 0.08805,-0.176107 0,-0.264725 0,0 0,-0.176388 -0.08805,-0.176389 -0.08834,-0.176389 -0.176389,-0.08819 -0.352777,-0.08819 -0.440831,-0.0882 -0.97028,0 0,1.587359 0,0 z"
         style="fill:#840c2c;fill-opacity:1;fill-rule:nonzero;stroke:none" /><path
         inkscape:connector-curvature="0"
         id="path3507"
         d="m 61.206944,32.984722 -0.61722,-1.499446 -2.646115,0 -0.528885,1.499446 3.79222,0 0,0 z m -1.940277,-4.850694 -0.793609,2.116808 1.587218,0 -0.793609,-2.116808 0,0 z"
         style="fill:#840c2c;fill-opacity:1;fill-rule:nonzero;stroke:none" /><path
         inkscape:connector-curvature="0"
         id="path3509"
         d="m 35.89528,32.984722 0,0 L 35.365831,32.72028 34.925,32.455556 34.484169,32.190831 34.131391,31.75 33.866667,31.309169 33.690278,30.77972 33.513889,30.1625 l 0,-0.61722 0,0 0.08805,-0.705555 0.176671,-0.705697 0.264443,-0.617361 0.441113,-0.529167 0.528884,-0.440972 0.617503,-0.264583 0.705555,-0.176389 0.793609,-0.08819 0,0 0.793891,0.08819 0.61722,0.176389 0.705556,0.264583 0.529449,0.440972 0.352777,0.529167 0.352778,0.617361 0.176107,0.705697 0.08834,0.705555 0,0 0,0.61722 -0.176389,0.61722 -0.176388,0.529449 -0.264443,0.440831 -0.352777,0.440831 -0.441114,0.264725 -0.441113,0.264724 -0.528885,0.264442 5.291667,0 0,-6.790972 2.645551,0 0,0 0.529449,0 0.440831,0.08819 0.440831,0.176389 0.352778,0.176388 0.352778,0.264584 0.176671,0.352778 0.176107,0.440972 0.08834,0.529166 0,0 -0.08834,0.705556 -0.176107,0.264724 -0.176671,0.264443 -0.176107,0.264442 -0.264724,0.176671 -0.264725,0.08805 -0.352777,0.08805 1.763888,2.910557 2.646116,0 0,-6.790972 1.411111,0 0,6.790972 2.645551,0 2.910558,-6.790972 1.234722,0 2.910276,6.790972 2.646115,0 0,-6.790972 1.499165,0 0,5.379861 2.734169,0 0,1.411111 1.411111,0 0,-32.984721780952 -5.380002,0 L 41.539724,4.0569447 l -4.321668,0.7055555 -1.058334,0.5291667 -3.175,1.1465278 -5.732639,1.4993055 -6.967361,1.7638889 -2.998611,0 L 11.994444,10.142361 9.3486111,10.759722 6.8791667,11.200695 2.9986111,11.1125 0,11.553472 l 0.26458333,0.970139 1.41111107,3.263195 0.79375,0.79375 -0.4409722,1.058333 0.2645834,2.116667 0.8819444,1.675694 -0.3527778,2.116667 -0.2645833,1.940278 0.088194,1.940277 0.088194,2.292915 -0.5291667,2.028613 -0.8819444,1.234722 2.8222222,0 0,-6.790972 2.2930555,0 1.4993056,4.409864 0,0 1.5875,-4.409864 2.2048609,0 0,6.790972 3.351389,0 0,-6.790972 4.586111,0 0,1.411111 -3.086805,0 0,1.234864 2.910416,0 0,1.322775 -2.910416,0 0,1.411111 3.263194,0 0,1.411111 3.086806,0 0,-6.790972 2.293055,0 1.499306,4.409864 0.08819,0 1.499165,-4.409864 2.293337,0 0,6.790972 5.291667,0 0,0 z"
         style="fill:#840c2c;fill-opacity:1;fill-rule:nonzero;stroke:none" /><path
         inkscape:connector-curvature="0"
         id="path3511"
         d="m 37.12972,31.75 0,0 0.441113,-0.08805 0.441114,-0.08834 0.352777,-0.176389 0.264443,-0.264724 0.264442,-0.352778 0.176671,-0.352778 0.08805,-0.440831 0.08805,-0.440831 0,0 -0.08805,-0.441113 -0.08805,-0.441113 -0.176671,-0.352778 -0.264442,-0.264442 -0.264443,-0.264584 -0.352777,-0.176389 -0.441114,-0.176389 -0.441113,0 0,0 -0.440831,0 -0.440831,0.176389 -0.352778,0.176389 -0.264724,0.264584 -0.264725,0.264442 -0.176107,0.352778 -0.08834,0.441113 -0.08834,0.441113 0,0 0.08834,0.440831 0.08834,0.440831 0.176107,0.352778 0.264725,0.352778 0.264724,0.264724 0.352778,0.176389 0.440831,0.08834 0.440831,0.08805 0,0 0,0 z"
         style="fill:#840c2c;fill-opacity:1;fill-rule:nonzero;stroke:none" /><path
         inkscape:connector-curvature="0"
         id="path3513"
         d="m 4.1451389,26.19375 2.2930555,0 1.4993056,4.409864 0,0 1.5875,-4.409864 2.204861,0 0,6.702637 -1.411111,0 0,-5.115137 -0.08819,0 -1.7638893,5.115137 -1.1465278,0 -1.6756945,-5.115137 0,0 0,5.115137 -1.4993055,0 0,-6.702637 0,0 z"
         style="fill:#ffffff;fill-opacity:1;fill-rule:nonzero;stroke:none" /><path
         inkscape:connector-curvature="0"
         id="path3515"
         d="m 15.08125,26.19375 4.586111,0 0,1.411111 -3.086805,0 0,1.234864 2.910416,0 0,1.322775 -2.910416,0 0,1.411111 3.263194,0 0,1.322776 -4.7625,0 0,-6.702637 0,0 z"
         style="fill:#ffffff;fill-opacity:1;fill-rule:nonzero;stroke:none" /><path
         inkscape:connector-curvature="0"
         id="path3517"
         d="m 22.930556,26.19375 2.293055,0 1.499306,4.409864 0.08819,0 1.499165,-4.409864 2.293337,0 0,6.702637 -1.499446,0 0,-5.115137 0,0 -1.852084,5.115137 -1.058333,0 -1.763889,-5.115137 0,0 0,5.115137 -1.499305,0 0,-6.702637 0,0 z"
         style="fill:#ffffff;fill-opacity:1;fill-rule:nonzero;stroke:none" /><path
         inkscape:connector-curvature="0"
         id="path3519"
         d="m 35.89528,32.984722 0,0 L 35.365831,32.72028 34.925,32.455556 34.484169,32.102778 34.131391,31.75 33.866667,31.309169 33.690278,30.77972 33.513889,30.1625 l 0,-0.61722 0,0 0,-0.793891 0.264724,-0.617361 0.264443,-0.617361 0.441113,-0.529167 0.528884,-0.440972 0.617503,-0.264583 0.705555,-0.176389 0.793609,-0.08819 0,0 0.793891,0.08819 0.61722,0.176389 0.617502,0.264583 0.617503,0.440972 0.352777,0.529167 0.352778,0.617361 0.176107,0.617361 0.08834,0.793891 0,0 0,0.61722 -0.176389,0.61722 -0.176388,0.529449 -0.352778,0.440831 -0.352778,0.440831 -0.352778,0.264725 -0.529166,0.264724 -0.529167,0.264442 -2.381109,0 0,0 z M 37.12972,31.75 l 0,0 0.441113,-0.08805 0.441114,-0.08834 0.352777,-0.176389 0.264443,-0.264724 0.264442,-0.352778 0.176671,-0.352778 0.08805,-0.440831 0.08805,-0.440831 0,0 -0.08805,-0.441113 -0.08805,-0.441113 -0.176671,-0.352778 -0.264442,-0.264442 -0.264443,-0.264584 -0.352777,-0.264583 -0.441114,-0.0882 -0.441113,0 0,0 -0.440831,0 -0.440831,0.0882 -0.352778,0.264583 -0.264724,0.264584 -0.264725,0.264442 -0.176107,0.352778 -0.08834,0.441113 -0.08834,0.441113 0,0 0.08834,0.440831 0.08834,0.440831 0.176107,0.352778 0.264725,0.352778 0.264724,0.264724 0.352778,0.176389 0.440831,0.08834 0.440831,0.08805 0,0 0,0 z"
         style="fill:#ffffff;fill-opacity:1;fill-rule:nonzero;stroke:none" /><path
         inkscape:connector-curvature="0"
         id="path3521"
         d="m 43.656391,26.19375 2.645551,0 0,0 0.529449,0 0.440831,0.08819 0.440831,0.176389 0.352778,0.176388 0.352778,0.264584 0.176671,0.352778 0.176107,0.440972 0.08834,0.529166 0,0 -0.08834,0.705556 -0.176107,0.264724 -0.176671,0.264443 -0.176107,0.264442 -0.264724,0.176671 -0.264725,0.08805 -0.352777,0.08805 1.763888,2.822222 -1.851942,0 -1.411111,-2.645551 -0.705555,0 0,2.645551 -1.499165,0 0,-6.702637 0,0 z m 1.499165,2.822081 0.881944,0 0,0 0.441113,0 0.352778,-0.08805 0.176107,-0.176389 0.176671,-0.08834 0.08805,-0.176107 0,-0.264725 0,0 0,-0.176388 -0.08805,-0.176389 -0.08834,-0.176389 -0.176389,-0.08819 -0.352777,-0.08819 -0.440831,-0.0882 -0.97028,0 0,1.587359 0,0 z"
         style="fill:#ffffff;fill-opacity:1;fill-rule:nonzero;stroke:none" /><path
         inkscape:connector-curvature="0"
         id="path3523"
         d="m 51.77028,26.19375 1.411111,0 0,6.702637 -1.411111,0 0,-6.702637 0,0 z"
         style="fill:#ffffff;fill-opacity:1;fill-rule:nonzero;stroke:none" /><path
         inkscape:connector-curvature="0"
         id="path3525"
         d="m 58.7375,26.19375 1.146669,0 2.998329,6.702637 -1.675554,0 -0.61722,-1.411111 -2.646115,0 -0.528885,1.411111 -1.587782,0 2.910558,-6.702637 0,0 z m 0.529167,1.940278 -0.793609,2.116808 1.587218,0 -0.793609,-2.116808 0,0 z"
         style="fill:#ffffff;fill-opacity:1;fill-rule:nonzero;stroke:none" /><path
         inkscape:connector-curvature="0"
         id="path3527"
         d="m 65.528613,26.19375 1.499165,0 0,5.379861 2.734169,0 0,1.322776 -4.233334,0 0,-6.702637 0,0 z"
         style="fill:#ffffff;fill-opacity:1;fill-rule:nonzero;stroke:none" /></g></g></svg>